0
SECTION
2
HEADER
9
$INSUNITS
70
4
9
$ACADVER
1
AC1014
9
$HANDSEED
5
FFFF
0
ENDSEC
0
SECTION
2
TABLES
0
TABLE
2
VPORT
5
8
100
AcDbSymbolTable
0
ENDTAB
0
TABLE
2
LTYPE
5
5
100
AcDbSymbolTable
0
LTYPE
5
14
100
AcDbSymbolTableRecord
100
AcDbLinetypeTableRecord
2
BYBLOCK
70
0
0
LTYPE
5
15
100
AcDbSymbolTableRecord
100
AcDbLinetypeTableRecord
2
BYLAYER
70
0
0
ENDTAB
0
TABLE
2
LAYER
5
2
100
AcDbSymbolTable
70
2
0
LAYER
5
50
100
AcDbSymbolTableRecord
100
AcDbLayerTableRecord
2
0
70
0
6
CONTINUOUS
0
ENDTAB
0
TABLE
2
STYLE
5
3
100
AcDbSymbolTable
70
1
0
STYLE
5
11
100
AcDbSymbolTableRecord
100
AcDbTextStyleTableRecord
2
STANDARD
70
0
0
ENDTAB
0
TABLE
2
VIEW
5
6
100
AcDbSymbolTable
70
0
0
ENDTAB
0
TABLE
2
UCS
5
7
100
AcDbSymbolTable
70
0
0
ENDTAB
0
TABLE
2
APPID
5
9
100
AcDbSymbolTable
70
2
0
APPID
5
12
100
AcDbSymbolTableRecord
100
AcDbRegAppTableRecord
2
ACAD
70
0
0
ENDTAB
0
TABLE
2
DIMSTYLE
5
A
100
AcDbSymbolTable
70
1
0
ENDTAB
0
TABLE
2
BLOCK_RECORD
5
1
100
AcDbSymbolTable
70
1
0
BLOCK_RECORD
5
1F
100
AcDbSymbolTableRecord
100
AcDbBlockTableRecord
2
*MODEL_SPACE
0
BLOCK_RECORD
5
1B
100
AcDbSymbolTableRecord
100
AcDbBlockTableRecord
2
*PAPER_SPACE
0
ENDTAB
0
ENDSEC
0
SECTION
2
BLOCKS
0
BLOCK
5
20
100
AcDbEntity
100
AcDbBlockBegin
2
*MODEL_SPACE
0
ENDBLK
5
21
100
AcDbEntity
100
AcDbBlockEnd
0
BLOCK
5
1C
100
AcDbEntity
100
AcDbBlockBegin
2
*PAPER_SPACE
0
ENDBLK
5
1D
100
AcDbEntity
100
AcDbBlockEnd
0
ENDSEC
0
SECTION
2
ENTITIES
0
LWPOLYLINE
5
100
100
AcDbEntity
8
0
100
AcDbPolyline
90
4
70
1
43
0.0
10
411.50000000000006
20
136
10
411.50000000000006
20
74
10
349.5
20
74
10
349.5
20
136
0
LWPOLYLINE
5
101
100
AcDbEntity
8
0
100
AcDbPolyline
90
4
70
1
43
0.0
10
212.5
20
11
10
212.5
20
44
10
162.5
20
44
10
162.5
20
11
0
LWPOLYLINE
5
102
100
AcDbEntity
8
0
100
AcDbPolyline
90
29
70
1
43
0.0
10
444.49999999999989
20
204.00000000000003
10
474.00000000000006
20
204.00000000000003
10
474.00000000000006
20
174.00000000000003
10
480
20
174.00000000000003
10
480
20
36
10
474.00000000000006
20
36
10
474.00000000000006
20
6.0000000000000009
10
444.00000000000006
20
6.0000000000000009
10
444.00000000000006
20
0
10
315
20
0
10
315
20
6.0000000000000009
10
215
20
6.0000000000000009
10
215
20
0
10
85.5
20
0
10
85.5
20
6.0000000000000009
10
56.000000000000007
20
6.0000000000000009
10
56.000000000000007
20
36
10
50
20
36
10
50
20
174.00000000000003
10
56.000000000000007
20
174.00000000000003
10
56.000000000000007
20
204.00000000000003
10
85.5
20
204.00000000000003
10
85.5
20
210
10
215
20
210
10
215
20
204.00000000000003
10
265
20
204.00000000000003
10
315
20
204.00000000000003
10
315
20
210
10
444.49999999999989
20
210
0
LWPOLYLINE
5
103
100
AcDbEntity
8
0
100
AcDbPolyline
90
29
70
1
43
0.0
10
315
20
-72.000000000000014
10
444.00000000000006
20
-72.000000000000014
10
444.00000000000006
20
-78
10
480
20
-78
10
480
20
-56.000000476837158
10
474.00000000000006
20
-56.000000476837158
10
474.00000000000006
20
-32.000000476837158
10
480
20
-32.000000476837158
10
480
20
-10
10
444.00000000000006
20
-10
10
444.00000000000006
20
-16
10
315
20
-16
10
315
20
-10
10
215
20
-10
10
215
20
-16
10
85.5
20
-16
10
85.5
20
-10
10
50
20
-10
10
50
20
-32.000000476837158
10
56.000000834465027
20
-32.000000476837158
10
56.000000834465027
20
-44
10
56.000000834465027
20
-56.000000834465027
10
50
20
-56.000000834465027
10
50
20
-78
10
85.5
20
-78
10
85.5
20
-72.000000000000014
10
215
20
-72.000000000000014
10
215
20
-78
10
315
20
-78
0
LWPOLYLINE
5
104
100
AcDbEntity
8
0
100
AcDbPolyline
90
4
70
1
43
0.0
10
272.5
20
136
10
334.5
20
136
10
334.5
20
74
10
272.5
20
74
0
LWPOLYLINE
5
105
100
AcDbEntity
8
0
100
AcDbPolyline
90
4
70
1
43
0.0
10
195.5
20
136
10
257.5
20
136
10
257.5
20
74
10
195.5
20
74
0
CIRCLE
5
106
100
AcDbEntity
8
0
100
AcDbCircle
10
265
20
20
30
0
40
3.0000000000000071
210
0
220
0
230
1
0
LWPOLYLINE
5
107
100
AcDbEntity
8
0
100
AcDbPolyline
90
4
70
1
43
0.0
10
180.5
20
74
10
118.50000000000001
20
74
10
118.50000000000001
20
136
10
180.5
20
136
0
CIRCLE
5
108
100
AcDbEntity
8
0
100
AcDbCircle
10
85.5
20
174.00000000000003
30
0
40
21.000000000000011
210
0
220
0
230
1
0
LWPOLYLINE
5
109
100
AcDbEntity
8
0
100
AcDbPolyline
90
4
70
1
43
0.0
10
265
20
153
10
288.33452377915597
20
176.33452377915614
10
265
20
199.66904755831212
10
241.66547622084391
20
176.33452377915614
0
LWPOLYLINE
5
110
100
AcDbEntity
8
0
100
AcDbPolyline
90
4
70
1
43
0.0
10
367.5
20
11
10
367.5
20
44
10
317.5
20
44
10
317.5
20
11
0
CIRCLE
5
111
100
AcDbEntity
8
0
100
AcDbCircle
10
470
20
105
30
0
40
2.9999999999999738
210
0
220
0
230
1
0
CIRCLE
5
112
100
AcDbEntity
8
0
100
AcDbCircle
10
444.49999999999989
20
174.00000000000003
30
0
40
20.999999999999982
210
0
220
0
230
1
0
CIRCLE
5
113
100
AcDbEntity
8
0
100
AcDbCircle
10
60
20
105
30
0
40
3.0000000000000004
210
0
220
0
230
1
0
LWPOLYLINE
5
114
100
AcDbEntity
8
0
100
AcDbPolyline
90
29
70
1
43
0.0
10
50
20
-158
10
85.5
20
-158
10
85.5
20
-152
10
215
20
-152
10
215
20
-158
10
315
20
-158
10
315
20
-152
10
444.00000000000006
20
-152
10
444.00000000000006
20
-158
10
480
20
-158
10
480
20
-136.00000047683719
10
474.00000000000006
20
-136.00000047683719
10
474.00000000000006
20
-112.00000047683722
10
480
20
-112.00000047683722
10
480
20
-90
10
444.00000000000006
20
-90
10
444.00000000000006
20
-96.000000000000014
10
315
20
-96.000000000000014
10
315
20
-90
10
215
20
-90
10
215
20
-96.000000000000014
10
85.5
20
-96.000000000000014
10
85.5
20
-90
10
50
20
-90
10
50
20
-112.00000047683722
10
56.000000834465027
20
-112.00000047683722
10
56.000000834465027
20
-124
10
56.000000834465027
20
-136.000000834465
10
50
20
-136.000000834465
0
LWPOLYLINE
5
115
100
AcDbEntity
8
0
100
AcDbPolyline
90
22
70
1
43
0.0
10
56.000000000000092
20
-219.00000000000003
10
50.000000000000099
20
-219.00000000000003
10
50.000000000000099
20
-195
10
56.000000000000092
20
-195
10
56.000000000000092
20
-179.00000000000003
10
56.000000000000092
20
-173.00000257790089
10
86.000000000000071
20
-173.00000257790089
10
86.000000000000071
20
-179.00000266730785
10
224.00000000000009
20
-179.00000266730785
10
224.00000000000009
20
-173.00000257790089
10
254.00000000000009
20
-173.00000257790089
10
254.00000000000009
20
-179.00000000000003
10
254.00000000000009
20
-195
10
260.00000000000006
20
-195
10
260.00000000000006
20
-219.00000000000003
10
254.00000000000009
20
-219.00000000000003
10
254.00000000000009
20
-241
10
224.00000000000009
20
-241
10
224.00000000000009
20
-235
10
86.000000000000071
20
-235.00000000000006
10
86.000000000000071
20
-241
10
56.000000000000092
20
-241
0
LWPOLYLINE
5
116
100
AcDbEntity
8
0
100
AcDbPolyline
90
4
70
1
43
0.0
10
255
20
-30
10
255
20
-20
10
275
20
-20
10
275
20
-30
0
LWPOLYLINE
5
117
100
AcDbEntity
8
0
100
AcDbPolyline
90
29
70
1
43
0.0
10
315
20
226
10
215
20
226
10
215
20
220
10
85.5
20
220
10
85.5
20
226
10
56.000000000000007
20
226
10
56.000000000000007
20
256
10
50
20
256
10
50
20
394.00000000000023
10
56.000000000000007
20
394.00000000000023
10
56.000000000000007
20
424.00000000000006
10
85.5
20
424.00000000000006
10
85.5
20
430
10
215
20
430
10
215
20
424.00000000000006
10
265
20
424.00000000000006
10
315
20
424.00000000000006
10
315
20
430
10
444.49999999999989
20
430
10
444.49999999999989
20
424.00000000000006
10
474.00000000000006
20
424.00000000000006
10
474.00000000000006
20
394.00000000000023
10
480
20
394.00000000000023
10
480
20
256
10
474.00000000000006
20
256
10
474.00000000000006
20
226
10
444.00000000000006
20
226
10
444.00000000000006
20
220
10
315
20
220
0
LWPOLYLINE
5
118
100
AcDbEntity
8
0
100
AcDbPolyline
90
22
70
1
43
0.0
10
474.00000000000006
20
-179.00000000000003
10
474.00000000000006
20
-173.00000257790089
10
444.00000000000006
20
-173.00000257790089
10
444.00000000000006
20
-179.00000266730785
10
306.00000000000011
20
-179.00000266730785
10
306.00000000000011
20
-173.00000257790089
10
276.00000000000011
20
-173.00000257790089
10
276.00000000000011
20
-179.00000000000003
10
276.00000000000011
20
-195
10
270.00000000000011
20
-195
10
270.00000000000011
20
-219.00000000000003
10
276.00000000000011
20
-219.00000000000003
10
276.00000000000011
20
-241
10
306.00000000000011
20
-241
10
306.00000000000011
20
-235.00000000000006
10
444.00000000000006
20
-235
10
444.00000000000006
20
-241
10
474.00000000000006
20
-241
10
474.00000000000006
20
-219.00000000000003
10
480.00000000000006
20
-219.00000000000003
10
480.00000000000006
20
-195
10
474.00000000000006
20
-195
0
ENDSEC
0
SECTION
2
OBJECTS
0
DICTIONARY
5
C
100
AcDbDictionary
3
ACAD_GROUP
350
D
3
ACAD_MLINESTYLE
350
17
0
DICTIONARY
5
D
100
AcDbDictionary
0
DICTIONARY
5
1A
330
C
100
AcDbDictionary
0
DICTIONARY
5
17
100
AcDbDictionary
0
ENDSEC
0
EOF
