0
SECTION
2
HEADER
9
$INSUNITS
70
4
9
$ACADVER
1
AC1014
9
$HANDSEED
5
FFFF
0
ENDSEC
0
SECTION
2
TABLES
0
TABLE
2
VPORT
5
8
100
AcDbSymbolTable
0
ENDTAB
0
TABLE
2
LTYPE
5
5
100
AcDbSymbolTable
0
LTYPE
5
14
100
AcDbSymbolTableRecord
100
AcDbLinetypeTableRecord
2
BYBLOCK
70
0
0
LTYPE
5
15
100
AcDbSymbolTableRecord
100
AcDbLinetypeTableRecord
2
BYLAYER
70
0
0
ENDTAB
0
TABLE
2
LAYER
5
2
100
AcDbSymbolTable
70
2
0
LAYER
5
50
100
AcDbSymbolTableRecord
100
AcDbLayerTableRecord
2
0
70
0
6
CONTINUOUS
0
ENDTAB
0
TABLE
2
STYLE
5
3
100
AcDbSymbolTable
70
1
0
STYLE
5
11
100
AcDbSymbolTableRecord
100
AcDbTextStyleTableRecord
2
STANDARD
70
0
0
ENDTAB
0
TABLE
2
VIEW
5
6
100
AcDbSymbolTable
70
0
0
ENDTAB
0
TABLE
2
UCS
5
7
100
AcDbSymbolTable
70
0
0
ENDTAB
0
TABLE
2
APPID
5
9
100
AcDbSymbolTable
70
2
0
APPID
5
12
100
AcDbSymbolTableRecord
100
AcDbRegAppTableRecord
2
ACAD
70
0
0
ENDTAB
0
TABLE
2
DIMSTYLE
5
A
100
AcDbSymbolTable
70
1
0
ENDTAB
0
TABLE
2
BLOCK_RECORD
5
1
100
AcDbSymbolTable
70
1
0
BLOCK_RECORD
5
1F
100
AcDbSymbolTableRecord
100
AcDbBlockTableRecord
2
*MODEL_SPACE
0
BLOCK_RECORD
5
1B
100
AcDbSymbolTableRecord
100
AcDbBlockTableRecord
2
*PAPER_SPACE
0
ENDTAB
0
ENDSEC
0
SECTION
2
BLOCKS
0
BLOCK
5
20
100
AcDbEntity
100
AcDbBlockBegin
2
*MODEL_SPACE
0
ENDBLK
5
21
100
AcDbEntity
100
AcDbBlockEnd
0
BLOCK
5
1C
100
AcDbEntity
100
AcDbBlockBegin
2
*PAPER_SPACE
0
ENDBLK
5
1D
100
AcDbEntity
100
AcDbBlockEnd
0
ENDSEC
0
SECTION
2
ENTITIES
0
LWPOLYLINE
5
100
100
AcDbEntity
8
0
100
AcDbPolyline
90
29
70
1
43
0.0
10
444.49999999999994
20
210
10
315
20
210
10
315
20
204.00000000000006
10
265
20
204.00000000000006
10
215
20
204.00000000000006
10
215
20
210
10
85.5
20
210
10
85.5
20
204.00000000000006
10
56.000000000000014
20
204.00000000000006
10
56.000000000000014
20
174.00000000000003
10
50
20
174.00000000000003
10
50
20
36
10
56.000000000000014
20
36
10
56.000000000000014
20
6.0000000000000009
10
85.5
20
6.0000000000000009
10
85.5
20
0
10
215
20
0
10
215
20
6.0000000000000009
10
315
20
6.0000000000000009
10
315
20
0
10
444.00000000000006
20
0
10
444.00000000000006
20
6.0000000000000009
10
474.00000000000006
20
6.0000000000000009
10
474.00000000000006
20
36
10
480
20
36
10
480
20
174.00000000000003
10
474.00000000000006
20
174.00000000000003
10
474.00000000000006
20
204.00000000000006
10
444.49999999999994
20
204.00000000000006
0
LWPOLYLINE
5
101
100
AcDbEntity
8
0
100
AcDbPolyline
90
29
70
1
43
0.0
10
474.00000000000006
20
-56.000000476837158
10
480
20
-56.000000476837158
10
480
20
-78
10
444.00000000000006
20
-78
10
444.00000000000006
20
-72.000000000000014
10
315
20
-72.000000000000014
10
315
20
-78
10
215
20
-78
10
215
20
-72.000000000000014
10
85.5
20
-72.000000000000014
10
85.5
20
-78
10
50
20
-78
10
50
20
-56.000000834465027
10
56.000000834465027
20
-56.000000834465027
10
56.000000834465027
20
-44
10
56.000000834465027
20
-32.000000476837158
10
50
20
-32.000000476837158
10
50
20
-10
10
85.5
20
-10
10
85.5
20
-16
10
215
20
-16
10
215
20
-10
10
315
20
-10
10
315
20
-16
10
444.00000000000006
20
-16
10
444.00000000000006
20
-10
10
480
20
-10
10
480
20
-32.000000476837158
10
474.00000000000006
20
-32.000000476837158
0
CIRCLE
5
102
100
AcDbEntity
8
0
100
AcDbCircle
10
85.5
20
174.00000000000003
30
0
40
21.000000000000011
210
0
220
0
230
1
0
CIRCLE
5
103
100
AcDbEntity
8
0
100
AcDbCircle
10
265
20
20
30
0
40
3.0000000000000071
210
0
220
0
230
1
0
LWPOLYLINE
5
104
100
AcDbEntity
8
0
100
AcDbPolyline
90
29
70
1
43
0.0
10
50
20
-136.000000834465
10
56.000000834465027
20
-136.000000834465
10
56.000000834465027
20
-124
10
56.000000834465027
20
-112.00000047683723
10
50
20
-112.00000047683723
10
50
20
-90
10
85.5
20
-90
10
85.5
20
-96.000000000000014
10
215
20
-96.000000000000014
10
215
20
-90
10
315
20
-90
10
315
20
-96.000000000000014
10
444.00000000000006
20
-96.000000000000014
10
444.00000000000006
20
-90
10
480
20
-90
10
480
20
-112.00000047683723
10
474.00000000000006
20
-112.00000047683723
10
474.00000000000006
20
-136.00000047683719
10
480
20
-136.00000047683719
10
480
20
-158
10
444.00000000000006
20
-158
10
444.00000000000006
20
-152
10
315
20
-152
10
315
20
-158
10
215
20
-158
10
215
20
-152
10
85.5
20
-152
10
85.5
20
-158
10
50
20
-158
0
LWPOLYLINE
5
105
100
AcDbEntity
8
0
100
AcDbPolyline
90
22
70
1
43
0.0
10
56.000000000000092
20
-179.00000000000003
10
56.000000000000092
20
-195
10
50.000000000000107
20
-195
10
50.000000000000107
20
-219.00000000000006
10
56.000000000000092
20
-219.00000000000006
10
56.000000000000092
20
-241
10
86.000000000000071
20
-241
10
86.000000000000071
20
-235.00000000000011
10
224.00000000000009
20
-235
10
224.00000000000009
20
-241
10
254.00000000000009
20
-241
10
254.00000000000009
20
-219.00000000000006
10
260.00000000000006
20
-219.00000000000006
10
260.00000000000006
20
-195
10
254.00000000000009
20
-195
10
254.00000000000009
20
-179.00000000000003
10
254.00000000000009
20
-173.00000257790089
10
224.00000000000009
20
-173.00000257790089
10
224.00000000000009
20
-179.00000266730785
10
86.000000000000071
20
-179.00000266730785
10
86.000000000000071
20
-173.00000257790089
10
56.000000000000092
20
-173.00000257790089
0
CIRCLE
5
106
100
AcDbEntity
8
0
100
AcDbCircle
10
470
20
105
30
0
40
2.9999999999999738
210
0
220
0
230
1
0
LWPOLYLINE
5
107
100
AcDbEntity
8
0
100
AcDbPolyline
90
29
70
1
43
0.0
10
215
20
220
10
215
20
226
10
315
20
226
10
315
20
220
10
444.00000000000006
20
220
10
444.00000000000006
20
226
10
474.00000000000006
20
226
10
474.00000000000006
20
256
10
480
20
256
10
480
20
394.00000000000023
10
474.00000000000006
20
394.00000000000023
10
474.00000000000006
20
424.00000000000006
10
444.49999999999994
20
424.00000000000006
10
444.49999999999994
20
430
10
315
20
430
10
315
20
424.00000000000006
10
265
20
424.00000000000006
10
215
20
424.00000000000006
10
215
20
430
10
85.5
20
430
10
85.5
20
424.00000000000006
10
56.000000000000014
20
424.00000000000006
10
56.000000000000014
20
394.00000000000023
10
50
20
394.00000000000023
10
50
20
256
10
56.000000000000014
20
256
10
56.000000000000014
20
226
10
85.5
20
226
10
85.5
20
220
0
CIRCLE
5
108
100
AcDbEntity
8
0
100
AcDbCircle
10
444.49999999999994
20
174.00000000000003
30
0
40
20.999999999999982
210
0
220
0
230
1
0
CIRCLE
5
109
100
AcDbEntity
8
0
100
AcDbCircle
10
60
20
105
30
0
40
3.0000000000000004
210
0
220
0
230
1
0
LWPOLYLINE
5
110
100
AcDbEntity
8
0
100
AcDbPolyline
90
22
70
1
43
0.0
10
444.00000000000006
20
-173.00000257790089
10
474.00000000000006
20
-173.00000257790089
10
474.00000000000006
20
-179.00000000000003
10
474.00000000000006
20
-195
10
480.00000000000006
20
-195
10
480.00000000000006
20
-219.00000000000006
10
474.00000000000006
20
-219.00000000000006
10
474.00000000000006
20
-241
10
444.00000000000006
20
-241
10
444.00000000000006
20
-235
10
306.00000000000011
20
-235.00000000000011
10
306.00000000000011
20
-241
10
276.00000000000011
20
-241
10
276.00000000000011
20
-219.00000000000006
10
270.00000000000006
20
-219.00000000000006
10
270.00000000000006
20
-195
10
276.00000000000011
20
-195
10
276.00000000000011
20
-179.00000000000003
10
276.00000000000011
20
-173.00000257790089
10
306.00000000000011
20
-173.00000257790089
10
306.00000000000011
20
-179.00000266730785
10
444.00000000000006
20
-179.00000266730785
0
LWPOLYLINE
5
111
100
AcDbEntity
8
0
100
AcDbPolyline
90
4
70
1
43
0.0
10
364.70000000000005
20
12.999999999999989
10
318.70000000000005
20
12.999999999999989
10
318.70000000000005
20
42.000000000000043
10
364.70000000000005
20
42.000000000000014
0
LWPOLYLINE
5
112
100
AcDbEntity
8
0
100
AcDbPolyline
90
4
70
1
43
0.0
10
210.50000000000009
20
12.999999999999989
10
164.50000000000006
20
12.999999999999989
10
164.50000000000006
20
42.000000000000043
10
210.50000000000009
20
42.000000000000014
0
LWPOLYLINE
5
113
100
AcDbEntity
8
0
100
AcDbPolyline
90
4
70
1
43
0.0
10
265.00392797816949
20
196.83647966191614
10
285.51002463257936
20
176.33038300750624
10
265.00392797816949
20
155.82428635309637
10
244.49783132375958
20
176.3303830075063
0
LINE
5
114
100
AcDbEntity
8
0
100
AcDbLine
10
265.00392797816949
20
155.82428635309637
30
0
11
250.86179235443859
21
169.96642197682735
31
0
0
LWPOLYLINE
5
115
100
AcDbEntity
8
0
100
AcDbPolyline
90
4
70
1
43
0.0
10
178.07224092863629
20
76.502069790489145
10
178.07224092863629
20
133.50206979048917
10
121.07224092863626
20
133.50206979048917
10
121.07224092863625
20
76.502069790489145
0
LWPOLYLINE
5
116
100
AcDbEntity
8
0
100
AcDbPolyline
90
4
70
1
43
0.0
10
255.07224092863626
20
133.50206979048917
10
198.07224092863629
20
133.50206979048917
10
198.07224092863623
20
76.502069790489145
10
255.07224092863626
20
76.502069790489145
0
LWPOLYLINE
5
117
100
AcDbEntity
8
0
100
AcDbPolyline
90
4
70
1
43
0.0
10
332.07224092863623
20
133.50206979048917
10
275.07224092863623
20
133.50206979048917
10
275.07224092863623
20
76.502069790489145
10
332.07224092863623
20
76.502069790489145
0
LWPOLYLINE
5
118
100
AcDbEntity
8
0
100
AcDbPolyline
90
4
70
1
43
0.0
10
409.07224092863629
20
133.50206979048917
10
352.07224092863623
20
133.50206979048917
10
352.07224092863623
20
76.502069790489145
10
409.07224092863629
20
76.502069790489145
0
ENDSEC
0
SECTION
2
OBJECTS
0
DICTIONARY
5
C
100
AcDbDictionary
3
ACAD_GROUP
350
D
3
ACAD_MLINESTYLE
350
17
0
DICTIONARY
5
D
100
AcDbDictionary
0
DICTIONARY
5
1A
330
C
100
AcDbDictionary
0
DICTIONARY
5
17
100
AcDbDictionary
0
ENDSEC
0
EOF
