0
SECTION
2
HEADER
9
$INSUNITS
70
4
9
$ACADVER
1
AC1014
9
$HANDSEED
5
FFFF
0
ENDSEC
0
SECTION
2
TABLES
0
TABLE
2
VPORT
5
8
100
AcDbSymbolTable
0
ENDTAB
0
TABLE
2
LTYPE
5
5
100
AcDbSymbolTable
0
LTYPE
5
14
100
AcDbSymbolTableRecord
100
AcDbLinetypeTableRecord
2
BYBLOCK
70
0
0
LTYPE
5
15
100
AcDbSymbolTableRecord
100
AcDbLinetypeTableRecord
2
BYLAYER
70
0
0
ENDTAB
0
TABLE
2
LAYER
5
2
100
AcDbSymbolTable
70
2
0
LAYER
5
50
100
AcDbSymbolTableRecord
100
AcDbLayerTableRecord
2
0
70
0
6
CONTINUOUS
0
ENDTAB
0
TABLE
2
STYLE
5
3
100
AcDbSymbolTable
70
1
0
STYLE
5
11
100
AcDbSymbolTableRecord
100
AcDbTextStyleTableRecord
2
STANDARD
70
0
0
ENDTAB
0
TABLE
2
VIEW
5
6
100
AcDbSymbolTable
70
0
0
ENDTAB
0
TABLE
2
UCS
5
7
100
AcDbSymbolTable
70
0
0
ENDTAB
0
TABLE
2
APPID
5
9
100
AcDbSymbolTable
70
2
0
APPID
5
12
100
AcDbSymbolTableRecord
100
AcDbRegAppTableRecord
2
ACAD
70
0
0
ENDTAB
0
TABLE
2
DIMSTYLE
5
A
100
AcDbSymbolTable
70
1
0
ENDTAB
0
TABLE
2
BLOCK_RECORD
5
1
100
AcDbSymbolTable
70
1
0
BLOCK_RECORD
5
1F
100
AcDbSymbolTableRecord
100
AcDbBlockTableRecord
2
*MODEL_SPACE
0
BLOCK_RECORD
5
1B
100
AcDbSymbolTableRecord
100
AcDbBlockTableRecord
2
*PAPER_SPACE
0
ENDTAB
0
ENDSEC
0
SECTION
2
BLOCKS
0
BLOCK
5
20
100
AcDbEntity
100
AcDbBlockBegin
2
*MODEL_SPACE
0
ENDBLK
5
21
100
AcDbEntity
100
AcDbBlockEnd
0
BLOCK
5
1C
100
AcDbEntity
100
AcDbBlockBegin
2
*PAPER_SPACE
0
ENDBLK
5
1D
100
AcDbEntity
100
AcDbBlockEnd
0
ENDSEC
0
SECTION
2
ENTITIES
0
LWPOLYLINE
5
100
100
AcDbEntity
8
0
100
AcDbPolyline
90
36
70
1
43
0.0
10
-225.0000039488076
20
-379.00000134110456
10
-145.00000400841228
20
-379.00000134110456
10
-145.00000400841228
20
-373.00000067055225
10
-61.000003948807624
20
-373.00000067055225
10
-61.000003948807624
20
-379.00000134110456
10
10.999996691942332
20
-379.00000134110456
10
10.99999669194233
20
-252.0000007003548
10
4.9999960213900749
20
-252.0000007003548
10
4.9999960213900749
20
-168.0000006407501
10
10.999996691942329
20
-168.0000006407501
10
10.999996691942329
20
-41
10
-61.000003948807731
20
-41.000000000000007
10
-61.000003948807731
20
-47.000000670552254
10
-145.00000400841239
20
-47.000000670552254
10
-145.00000400841239
20
-41.000000000000007
10
-225.00000394880772
20
-41.000000000000007
10
-225.00000394880772
20
-47.000000670552254
10
-309.00000400841236
20
-47.000000670552254
10
-309.00000400841236
20
-41.000000000000007
10
-389.00000394880772
20
-41.000000000000007
10
-389.00000394880772
20
-47.000000670552254
10
-473.00000400841242
20
-47.000000670552254
10
-473.00000400841242
20
-41.000000000000007
10
-545.00000464916229
20
-41.000000000000014
10
-545.00000464916229
20
-168.00000058114537
10
-539.00000397861004
20
-168.00000058114537
10
-539.00000397861004
20
-252.00000064075005
10
-545.00000464916229
20
-252.00000064075005
10
-545.00000464916229
20
-379.00000134110456
10
-473.00000400841225
20
-379.00000134110456
10
-473.00000400841225
20
-373.00000067055231
10
-389.00000394880749
20
-373.00000067055225
10
-389.00000394880749
20
-379.00000134110456
10
-309.00000400841225
20
-379.00000134110456
10
-309.00000400841225
20
-373.00000067055225
10
-225.0000039488076
20
-373.00000067055225
0
LWPOLYLINE
5
101
100
AcDbEntity
8
0
100
AcDbPolyline
90
38
70
1
43
0.0
10
4.0000000745058077
20
-447.49004482611656
10
4.0000000745058077
20
-464.98008324473369
10
10
20
-464.98008324473369
10
10
20
-479.98008346825111
10
-61.000003948807596
20
-479.98008346825111
10
-61.000003948807588
20
-485.99004482611656
10
-145.00000400841225
20
-485.99004482611656
10
-145.00000400841225
20
-479.98008346825111
10
-225.0000039488076
20
-479.98008346825111
10
-225.0000039488076
20
-485.99004482611656
10
-309.00000400841225
20
-485.99004482611656
10
-309.00000400841225
20
-479.98008346825111
10
-389.00000394880749
20
-479.98008346825111
10
-389.00000394880749
20
-485.99004482611656
10
-473.00000400841225
20
-485.99004482611656
10
-473.00000400841225
20
-479.98008346825111
10
-544.00000464916229
20
-479.98008346825111
10
-544.00000464916229
20
-464.98008324473369
10
-538.00000803172588
20
-464.98008324473369
10
-538.00000803172588
20
-447.49004482611656
10
-538.00000803172588
20
-430.00000640749931
10
-544.00000464916229
20
-430.00000640749931
10
-544.00000464916229
20
-415.0000061839819
10
-473.00000400841225
20
-415.0000061839819
10
-473.00000400841225
20
-408.9900448261165
10
-389.00000394880749
20
-408.9900448261165
10
-389.00000394880749
20
-415.0000061839819
10
-309.00000400841225
20
-415.0000061839819
10
-309.00000400841225
20
-408.9900448261165
10
-225.0000039488076
20
-408.9900448261165
10
-225.0000039488076
20
-415.0000061839819
10
-145.00000400841228
20
-415.0000061839819
10
-145.00000400841228
20
-408.9900448261165
10
-61.000003948807624
20
-408.9900448261165
10
-61.000003948807624
20
-415.0000061839819
10
10
20
-415.0000061839819
10
10
20
-430.00000640749931
10
4.0000000745058077
20
-430.00000640749931
0
CIRCLE
5
102
100
AcDbEntity
8
0
100
AcDbCircle
10
-396
20
-260
30
0
40
2.999999999999996
210
0
220
0
230
1
0
LWPOLYLINE
5
103
100
AcDbEntity
8
0
100
AcDbPolyline
90
8
70
1
43
0.0
10
-39.357864376269042
20
-82.357864376269021
10
-39.357864376269035
20
-129.64213562373092
42
-0.41421356237309293
10
-44.357864376269035
20
-134.64213562373092
10
-191.64213562373089
20
-134.64213562373092
42
-0.41421356237309293
10
-196.64213562373092
20
-129.64213562373092
10
-196.64213562373092
20
-82.357864376269021
42
-0.41421356237309609
10
-191.64213562373089
20
-77.357864376269021
10
-44.357864376269056
20
-77.357864376269021
42
-0.41421356237309348
0
CIRCLE
5
104
100
AcDbEntity
8
0
100
AcDbCircle
10
-345.99999999999994
20
-210
30
0
40
2.999999999999996
210
0
220
0
230
1
0
CIRCLE
5
105
100
AcDbEntity
8
0
100
AcDbCircle
10
-18.71266773497624
20
-70.712667734976193
30
0
40
2.9999999999999982
210
0
220
0
230
1
0
CIRCLE
5
106
100
AcDbEntity
8
0
100
AcDbCircle
10
-218.00151011402227
20
-69.998489885977762
30
0
40
2.9999999999999982
210
0
220
0
230
1
0
CIRCLE
5
107
100
AcDbEntity
8
0
100
AcDbCircle
10
-17.998489885977826
20
-142.00151011402227
30
0
40
3.0000000000000071
210
0
220
0
230
1
0
LWPOLYLINE
5
108
100
AcDbEntity
8
0
100
AcDbPolyline
90
8
70
1
43
0.0
10
-205.32233047033631
20
-342.32233047033628
10
-30.677669529663696
20
-342.32233047033628
42
0.41421356237310414
10
-25.677669529663699
20
-337.32233047033628
10
-25.67766952966371
20
-192.67766952966369
42
0.41421356237309426
10
-30.677669529663696
20
-187.67766952966369
10
-205.32233047033631
20
-187.67766952966366
42
0.41421356237309503
10
-210.32233047033628
20
-192.67766952966369
10
-210.32233047033628
20
-337.32233047033628
42
0.41421356237310125
0
CIRCLE
5
109
100
AcDbEntity
8
0
100
AcDbCircle
10
-218.00151011402227
20
-142.00151011402227
30
0
40
3.0000000000000169
210
0
220
0
230
1
0
LINE
5
110
100
AcDbEntity
8
0
100
AcDbLine
10
4.9999960213900749
20
-252.0000007003548
30
0
11
10.99999669194233
21
-252.0000007003548
31
0
0
CIRCLE
5
111
100
AcDbEntity
8
0
100
AcDbCircle
10
-396
20
-210
30
0
40
31.500000000000014
210
0
220
0
230
1
0
CIRCLE
5
112
100
AcDbEntity
8
0
100
AcDbCircle
10
-218.00151011402221
20
-179.99848988597785
30
0
40
3.0000000000000142
210
0
220
0
230
1
0
LWPOLYLINE
5
113
100
AcDbEntity
8
0
100
AcDbPolyline
90
22
70
1
43
0.0
10
52.995213976190378
20
148.50000406429132
10
52.795220063314339
20
148.50000406429132
10
52.795220063314339
20
142.50000406429132
10
38.795213976190375
20
142.50000406429132
10
38.795213976190304
20
22.500003423541273
10
32.795213976190297
20
22.500003423541273
10
32.795213976190368
20
-61.499996636063443
10
38.795213976190375
20
-61.499996636063443
10
38.795213976190304
20
-181.49999727681319
10
52.795220063314417
20
-181.49999727681319
10
52.795220063314417
20
-187.49999727681319
10
70.295213976190297
20
-187.49999727681319
10
87.795207889066177
20
-187.49999727681319
10
87.795207889066177
20
-181.49999727681319
10
101.7952139761904
20
-181.49999727681319
10
101.7952139761904
20
-61.499996636063443
10
107.79521397619038
20
-61.499996636063443
10
107.79521397619047
20
22.500003423541273
10
101.79521397619047
20
22.500003423541273
10
101.79521397619047
20
142.5000040642914
10
87.79520788906639
20
142.50000406429132
10
87.79520788906639
20
148.50000406429132
0
CIRCLE
5
114
100
AcDbEntity
8
0
100
AcDbCircle
10
-17.998489885977786
20
-179.99848988597785
30
0
40
2.9999999999999987
210
0
220
0
230
1
0
CIRCLE
5
115
100
AcDbEntity
8
0
100
AcDbCircle
10
-446
20
-210
30
0
40
2.999999999999996
210
0
220
0
230
1
0
CIRCLE
5
116
100
AcDbEntity
8
0
100
AcDbCircle
10
-17.998489885977786
20
-350.00151011402227
30
0
40
3.000000000000016
210
0
220
0
230
1
0
CIRCLE
5
117
100
AcDbEntity
8
0
100
AcDbCircle
10
-218.00151011402221
20
-350.00151011402227
30
0
40
3.0000000000000204
210
0
220
0
230
1
0
CIRCLE
5
118
100
AcDbEntity
8
0
100
AcDbCircle
10
-396
20
-160
30
0
40
2.999999999999996
210
0
220
0
230
1
0
LINE
5
119
100
AcDbEntity
8
0
100
AcDbLine
10
4.9999960213900749
20
-252.0000007003548
30
0
11
4.9999960213900749
21
-168.0000006407501
31
0
0
LINE
5
120
100
AcDbEntity
8
0
100
AcDbLine
10
4.9999960213900749
20
-168.0000006407501
30
0
11
10.999996691942329
21
-168.0000006407501
31
0
0
LWPOLYLINE
5
121
100
AcDbEntity
8
0
100
AcDbPolyline
90
22
70
1
43
0.0
10
38.795213976190304
20
-531.49999727681325
10
52.795220063314417
20
-531.49999727681325
10
52.795220063314417
20
-537.49999727681325
10
70.295213976190297
20
-537.49999727681325
10
87.795207889066177
20
-537.49999727681325
10
87.795207889066177
20
-531.49999727681325
10
101.7952139761904
20
-531.49999727681325
10
101.7952139761904
20
-411.49999663606343
10
107.79521397619038
20
-411.49999663606343
10
107.79521397619047
20
-327.49999657645873
10
101.79521397619047
20
-327.49999657645873
10
101.79521397619047
20
-207.49999593570863
10
87.79520788906639
20
-207.49999593570868
10
87.79520788906639
20
-201.49999593570868
10
52.995213976190378
20
-201.49999593570868
10
52.795220063314339
20
-201.49999593570868
10
52.795220063314339
20
-207.49999593570868
10
38.795213976190375
20
-207.49999593570868
10
38.795213976190304
20
-327.49999657645873
10
32.795213976190297
20
-327.49999657645873
10
32.795213976190368
20
-411.49999663606343
10
38.795213976190375
20
-411.49999663606343
0
LWPOLYLINE
5
122
100
AcDbEntity
8
0
100
AcDbPolyline
90
38
70
1
43
0.0
10
-544.00000464916229
20
-530.00000640749931
10
-544.00000464916229
20
-515.0000061839819
10
-473.00000400841225
20
-515.0000061839819
10
-473.00000400841225
20
-508.9900448261165
10
-389.00000394880749
20
-508.9900448261165
10
-389.00000394880749
20
-515.0000061839819
10
-309.00000400841225
20
-515.0000061839819
10
-309.00000400841225
20
-508.9900448261165
10
-225.0000039488076
20
-508.9900448261165
10
-225.0000039488076
20
-515.0000061839819
10
-145.00000400841228
20
-515.0000061839819
10
-145.00000400841228
20
-508.9900448261165
10
-61.000003948807624
20
-508.9900448261165
10
-61.000003948807624
20
-515.0000061839819
10
10
20
-515.0000061839819
10
10
20
-530.00000640749931
10
4.0000000745058077
20
-530.00000640749931
10
4.0000000745058077
20
-547.49004482611656
10
4.0000000745058077
20
-564.98008324473369
10
10
20
-564.98008324473369
10
10
20
-579.98008346825111
10
-61.000003948807596
20
-579.98008346825111
10
-61.000003948807588
20
-585.99004482611656
10
-145.00000400841225
20
-585.99004482611656
10
-145.00000400841225
20
-579.98008346825111
10
-225.0000039488076
20
-579.98008346825111
10
-225.0000039488076
20
-585.99004482611656
10
-309.00000400841225
20
-585.99004482611656
10
-309.00000400841225
20
-579.98008346825111
10
-389.00000394880749
20
-579.98008346825111
10
-389.00000394880749
20
-585.99004482611656
10
-473.00000400841225
20
-585.99004482611656
10
-473.00000400841225
20
-579.98008346825111
10
-544.00000464916229
20
-579.98008346825111
10
-544.00000464916229
20
-564.98008324473369
10
-538.00000803172588
20
-564.98008324473369
10
-538.00000803172588
20
-547.49004482611656
10
-538.00000803172588
20
-530.00000640749931
0
LWPOLYLINE
5
123
100
AcDbEntity
8
0
100
AcDbPolyline
90
36
70
1
43
0.0
10
-145.00000400841228
20
-29.000001341104564
10
-145.00000400841228
20
-23.000000670552225
10
-61.000003948807624
20
-23.000000670552225
10
-61.000003948807624
20
-29.000001341104564
10
10.999996691942332
20
-29.000001341104564
10
10.99999669194233
20
97.999999299645211
10
4.9999960213900749
20
97.999999299645211
10
4.9999960213900749
20
181.9999993592499
10
10.999996691942329
20
181.9999993592499
10
10.999996691942329
20
309
10
-61.000003948807731
20
309
10
-61.000003948807731
20
302.99999932944775
10
-145.00000400841239
20
302.99999932944775
10
-145.00000400841239
20
309
10
-225.00000394880772
20
309
10
-225.00000394880772
20
302.99999932944775
10
-309.00000400841236
20
302.99999932944775
10
-309.00000400841236
20
309
10
-389.00000394880772
20
309
10
-389.00000394880772
20
302.99999932944775
10
-473.00000400841242
20
302.99999932944775
10
-473.00000400841242
20
309
10
-545.00000464916229
20
309
10
-545.00000464916229
20
181.99999941885463
10
-539.00000397861004
20
181.99999941885463
10
-539.00000397861004
20
97.999999359249941
10
-545.00000464916229
20
97.999999359249941
10
-545.00000464916229
20
-29.000001341104564
10
-473.00000400841225
20
-29.000001341104564
10
-473.00000400841225
20
-23.000000670552296
10
-389.00000394880749
20
-23.000000670552225
10
-389.00000394880749
20
-29.000001341104564
10
-309.00000400841225
20
-29.000001341104564
10
-309.00000400841225
20
-23.000000670552225
10
-225.0000039488076
20
-23.000000670552225
10
-225.0000039488076
20
-29.000001341104564
0
LINE
5
124
100
AcDbEntity
8
0
100
AcDbLine
10
4.9999960213900749
20
97.999999299645211
30
0
11
10.99999669194233
21
97.999999299645211
31
0
0
LINE
5
125
100
AcDbEntity
8
0
100
AcDbLine
10
4.9999960213900749
20
181.9999993592499
30
0
11
10.999996691942329
21
181.9999993592499
31
0
0
LINE
5
126
100
AcDbEntity
8
0
100
AcDbLine
10
4.9999960213900749
20
181.9999993592499
30
0
11
4.9999960213900749
21
97.999999299645211
31
0
0
ENDSEC
0
SECTION
2
OBJECTS
0
DICTIONARY
5
C
100
AcDbDictionary
3
ACAD_GROUP
350
D
3
ACAD_MLINESTYLE
350
17
0
DICTIONARY
5
D
100
AcDbDictionary
0
DICTIONARY
5
1A
330
C
100
AcDbDictionary
0
DICTIONARY
5
17
100
AcDbDictionary
0
ENDSEC
0
EOF
