0
SECTION
2
HEADER
9
$INSUNITS
70
4
9
$ACADVER
1
AC1014
9
$HANDSEED
5
FFFF
0
ENDSEC
0
SECTION
2
TABLES
0
TABLE
2
VPORT
5
8
100
AcDbSymbolTable
0
ENDTAB
0
TABLE
2
LTYPE
5
5
100
AcDbSymbolTable
0
LTYPE
5
14
100
AcDbSymbolTableRecord
100
AcDbLinetypeTableRecord
2
BYBLOCK
70
0
0
LTYPE
5
15
100
AcDbSymbolTableRecord
100
AcDbLinetypeTableRecord
2
BYLAYER
70
0
0
ENDTAB
0
TABLE
2
LAYER
5
2
100
AcDbSymbolTable
70
2
0
LAYER
5
50
100
AcDbSymbolTableRecord
100
AcDbLayerTableRecord
2
0
70
0
6
CONTINUOUS
0
ENDTAB
0
TABLE
2
STYLE
5
3
100
AcDbSymbolTable
70
1
0
STYLE
5
11
100
AcDbSymbolTableRecord
100
AcDbTextStyleTableRecord
2
STANDARD
70
0
0
ENDTAB
0
TABLE
2
VIEW
5
6
100
AcDbSymbolTable
70
0
0
ENDTAB
0
TABLE
2
UCS
5
7
100
AcDbSymbolTable
70
0
0
ENDTAB
0
TABLE
2
APPID
5
9
100
AcDbSymbolTable
70
2
0
APPID
5
12
100
AcDbSymbolTableRecord
100
AcDbRegAppTableRecord
2
ACAD
70
0
0
ENDTAB
0
TABLE
2
DIMSTYLE
5
A
100
AcDbSymbolTable
70
1
0
ENDTAB
0
TABLE
2
BLOCK_RECORD
5
1
100
AcDbSymbolTable
70
1
0
BLOCK_RECORD
5
1F
100
AcDbSymbolTableRecord
100
AcDbBlockTableRecord
2
*MODEL_SPACE
0
BLOCK_RECORD
5
1B
100
AcDbSymbolTableRecord
100
AcDbBlockTableRecord
2
*PAPER_SPACE
0
ENDTAB
0
ENDSEC
0
SECTION
2
BLOCKS
0
BLOCK
5
20
100
AcDbEntity
100
AcDbBlockBegin
2
*MODEL_SPACE
0
ENDBLK
5
21
100
AcDbEntity
100
AcDbBlockEnd
0
BLOCK
5
1C
100
AcDbEntity
100
AcDbBlockBegin
2
*PAPER_SPACE
0
ENDBLK
5
1D
100
AcDbEntity
100
AcDbBlockEnd
0
ENDSEC
0
SECTION
2
ENTITIES
0
LWPOLYLINE
5
100
100
AcDbEntity
8
0
100
AcDbPolyline
90
33
70
1
43
0.0
10
-6.0000046491623493
20
-179.00000134110456
10
-6.0000046491623493
20
-52.000000640750059
10
-3.9786100813898884e-06
20
-52.000000640750059
10
-3.9786100813898884e-06
20
31.999999418854621
10
-6.0000046491623493
20
31.999999418854621
10
-6.0000046491623493
20
159
10
65.999995991587568
20
159
10
70
20
159
10
149.99999605119228
20
159
10
169.99999599158772
20
159
10
169.99999599158772
20
152.99999932944775
10
229.99999599158764
20
152.99999932944775
10
313.99999605119228
20
152.99999932944775
10
373.99999605119234
20
152.99999932944775
10
373.99999605119234
20
159
10
393.99999599158764
20
159
10
477.99999605119228
20
159
10
549.99999669194233
20
159
10
549.99999669194233
20
31.999999359249891
10
543.99999602139007
20
31.999999359249891
10
543.99999602139007
20
-52.000000700354825
10
549.99999669194233
20
-52.000000700354825
10
549.99999669194244
20
-179.00000134110456
10
477.9999960511924
20
-179.00000134110456
10
393.9999959915877
20
-179.00000134110456
10
373.99999605119234
20
-179.00000134110456
10
373.99999605119234
20
-173.00000067055223
10
313.9999960511924
20
-173.00000067055223
10
229.99999599158772
20
-173.00000067055223
10
169.99999599158772
20
-173.00000067055223
10
169.99999599158772
20
-179.00000134110456
10
149.99999605119251
20
-179.00000134110456
10
65.99999599158771
20
-179.00000134110456
0
LINE
5
101
100
AcDbEntity
8
0
100
AcDbLine
10
543.99999602139007
20
31.999999359249891
30
0
11
549.99999669194233
21
31.999999359249891
31
0
0
LWPOLYLINE
5
102
100
AcDbEntity
8
0
100
AcDbPolyline
90
8
70
1
43
0.0
10
513.32233047033628
20
117.32233047033631
10
513.32233047033628
20
-137.32233047033631
42
-0.41421356237310336
10
508.32233047033634
20
-142.32233047033631
10
333.6776695296636
20
-142.32233047033631
42
-0.4142135623730992
10
328.67766952966372
20
-137.32233047033631
10
328.67766952966377
20
117.32233047033631
42
-0.41421356237309293
10
333.6776695296636
20
122.32233047033631
10
508.32233047033628
20
122.32233047033631
42
-0.41421356237309503
0
CIRCLE
5
103
100
AcDbEntity
8
0
100
AcDbCircle
10
320.99848988597779
20
-150.00151011402224
30
0
40
3.0000000000000204
210
0
220
0
230
1
0
CIRCLE
5
104
100
AcDbEntity
8
0
100
AcDbCircle
10
142.99999999999997
20
-10
30
0
40
31.500000000000014
210
0
220
0
230
1
0
CIRCLE
5
105
100
AcDbEntity
8
0
100
AcDbCircle
10
142.99999999999997
20
40
30
0
40
2.999999999999996
210
0
220
0
230
1
0
LINE
5
106
100
AcDbEntity
8
0
100
AcDbLine
10
543.99999602139007
20
-52.000000700354825
30
0
11
543.99999602139007
21
31.999999359249891
31
0
0
CIRCLE
5
107
100
AcDbEntity
8
0
100
AcDbCircle
10
521.00151011402215
20
-150.00151011402224
30
0
40
3.000000000000016
210
0
220
0
230
1
0
CIRCLE
5
108
100
AcDbEntity
8
0
100
AcDbCircle
10
520.28733226502379
20
129.28733226502379
30
0
40
2.9999999999999982
210
0
220
0
230
1
0
CIRCLE
5
109
100
AcDbEntity
8
0
100
AcDbCircle
10
142.99999999999997
20
-60
30
0
40
2.999999999999996
210
0
220
0
230
1
0
LINE
5
110
100
AcDbEntity
8
0
100
AcDbLine
10
543.99999602139007
20
-52.000000700354825
30
0
11
549.99999669194233
21
-52.000000700354825
31
0
0
CIRCLE
5
111
100
AcDbEntity
8
0
100
AcDbCircle
10
193.00000000000006
20
-10
30
0
40
2.999999999999996
210
0
220
0
230
1
0
CIRCLE
5
112
100
AcDbEntity
8
0
100
AcDbCircle
10
320.99848988597773
20
130.00151011402224
30
0
40
2.9999999999999982
210
0
220
0
230
1
0
CIRCLE
5
113
100
AcDbEntity
8
0
100
AcDbCircle
10
92.999999999999972
20
-10
30
0
40
2.999999999999996
210
0
220
0
230
1
0
LWPOLYLINE
5
114
100
AcDbEntity
8
0
100
AcDbPolyline
90
21
70
1
43
0.0
10
169.99999599158772
20
-195.83605990073426
10
169.99999599158772
20
-189.83605990073426
10
373.99999605119234
20
-189.83605990073426
10
373.99999605119234
20
-195.83605990073426
10
548.99999535083771
20
-195.83605990073426
10
548.99999535083771
20
-216.33605990073423
10
542.99999535083759
20
-216.33605990073423
10
542.99999535083759
20
-228.33605990073423
10
542.99999535083759
20
-240.33605990073423
10
548.99999535083771
20
-240.33605990073423
10
548.99999535083771
20
-260.8360599007342
10
373.99999605119234
20
-260.8360599007342
10
373.99999605119234
20
-266.83605990073426
10
169.99999599158772
20
-266.83605990073426
10
169.99999599158772
20
-260.8360599007342
10
-5.0000046491624062
20
-260.8360599007342
10
-5.0000046491624062
20
-240.33605990073423
10
0.99999535083759472
20
-240.33605990073423
10
0.99999535083759472
20
-216.33605990073423
10
-5.0000046491624062
20
-216.33605990073423
10
-5.0000046491624062
20
-195.83605990073426
0
LWPOLYLINE
5
115
100
AcDbEntity
8
0
100
AcDbPolyline
90
33
70
1
43
0.0
10
549.99999669194244
20
170.99999865889544
10
477.9999960511924
20
170.99999865889544
10
393.9999959915877
20
170.99999865889544
10
373.99999605119234
20
170.99999865889544
10
373.99999605119234
20
176.99999932944777
10
313.9999960511924
20
176.99999932944777
10
229.99999599158772
20
176.99999932944777
10
169.99999599158772
20
176.99999932944777
10
169.99999599158772
20
170.99999865889544
10
149.99999605119251
20
170.99999865889544
10
65.99999599158771
20
170.99999865889544
10
-6.0000046491623493
20
170.99999865889544
10
-6.0000046491623493
20
297.99999935924995
10
-3.9786100813898884e-06
20
297.99999935924995
10
-3.9786100813898884e-06
20
381.99999941885466
10
-6.0000046491623493
20
381.99999941885466
10
-6.0000046491623493
20
509
10
65.999995991587568
20
509
10
70
20
509
10
149.99999605119228
20
509
10
169.99999599158772
20
509
10
169.99999599158772
20
502.99999932944775
10
229.99999599158764
20
502.99999932944775
10
313.99999605119228
20
502.99999932944775
10
373.99999605119234
20
502.99999932944775
10
373.99999605119234
20
509
10
393.99999599158764
20
509
10
477.99999605119228
20
509
10
549.99999669194233
20
509
10
549.99999669194233
20
381.99999935924995
10
543.99999602139007
20
381.99999935924995
10
543.99999602139007
20
297.9999992996452
10
549.99999669194233
20
297.9999992996452
0
LINE
5
116
100
AcDbEntity
8
0
100
AcDbLine
10
549.99999669194233
20
297.9999992996452
30
0
11
543.99999602139007
21
297.9999992996452
31
0
0
LINE
5
117
100
AcDbEntity
8
0
100
AcDbLine
10
543.99999602139007
20
381.99999935924995
30
0
11
549.99999669194233
21
381.99999935924995
31
0
0
LINE
5
118
100
AcDbEntity
8
0
100
AcDbLine
10
543.99999602139007
20
297.9999992996452
30
0
11
543.99999602139007
21
381.99999935924995
31
0
0
LWPOLYLINE
5
119
100
AcDbEntity
8
0
100
AcDbPolyline
90
21
70
1
43
0.0
10
0.99999535083759472
20
-340.33605990073426
10
0.99999535083759472
20
-316.33605990073426
10
-5.0000046491624062
20
-316.33605990073426
10
-5.0000046491624062
20
-295.83605990073431
10
169.99999599158772
20
-295.83605990073431
10
169.99999599158772
20
-289.83605990073431
10
373.99999605119234
20
-289.83605990073431
10
373.99999605119234
20
-295.83605990073431
10
548.99999535083771
20
-295.83605990073431
10
548.99999535083771
20
-316.33605990073426
10
542.99999535083759
20
-316.33605990073426
10
542.99999535083759
20
-328.3360599007342
10
542.99999535083759
20
-340.33605990073426
10
548.99999535083771
20
-340.33605990073426
10
548.99999535083771
20
-360.8360599007342
10
373.99999605119234
20
-360.8360599007342
10
373.99999605119234
20
-366.83605990073431
10
169.99999599158772
20
-366.83605990073431
10
169.99999599158772
20
-360.8360599007342
10
-5.0000046491624062
20
-360.8360599007342
10
-5.0000046491624062
20
-340.33605990073426
0
LINE
5
120
100
AcDbEntity
8
0
100
AcDbLine
10
128.28354243629076
20
-414.00000061094778
30
0
11
128.28354243629076
21
-420.00000061094784
31
0
0
LINE
5
121
100
AcDbEntity
8
0
100
AcDbLine
10
212.28354249589546
20
-414.00000061094778
30
0
11
212.28354249589546
21
-420.00000061094784
31
0
0
LINE
5
122
100
AcDbEntity
8
0
100
AcDbLine
10
128.28354249589546
20
-491.00000061094784
30
0
11
128.28354249589546
21
-485.00000061094784
31
0
0
LINE
5
123
100
AcDbEntity
8
0
100
AcDbLine
10
212.28354255550013
20
-491.00000061094784
30
0
11
212.28354255550013
21
-485.00000061094784
31
0
0
LINE
5
124
100
AcDbEntity
8
0
100
AcDbLine
10
1.2835418551453515
20
-464.50000061094784
30
0
11
7.2835418551453524
21
-464.50000061094784
31
0
0
LINE
5
125
100
AcDbEntity
8
0
100
AcDbLine
10
128.28354249589546
20
-485.00000061094784
30
0
11
7.2835418551453524
21
-485.00000061094784
31
0
0
LINE
5
126
100
AcDbEntity
8
0
100
AcDbLine
10
7.2835418551453524
20
-485.00000061094784
30
0
11
7.2835418551453524
21
-464.50000061094784
31
0
0
LINE
5
127
100
AcDbEntity
8
0
100
AcDbLine
10
7.2835418551453524
20
-440.50000061094778
30
0
11
1.2835418551453515
21
-440.50000061094778
31
0
0
LINE
5
128
100
AcDbEntity
8
0
100
AcDbLine
10
7.2835418551453524
20
-440.50000061094778
30
0
11
7.2835418551453479
21
-420.00000061094784
31
0
0
LINE
5
129
100
AcDbEntity
8
0
100
AcDbLine
10
7.2835418551453479
20
-420.00000061094784
30
0
11
128.28354243629076
21
-420.00000061094784
31
0
0
LINE
5
130
100
AcDbEntity
8
0
100
AcDbLine
10
1.2835418551453515
20
-440.50000061094778
30
0
11
1.2835418551453515
21
-464.50000061094784
31
0
0
LINE
5
131
100
AcDbEntity
8
0
100
AcDbLine
10
128.28354243629076
20
-414.00000061094778
30
0
11
212.28354249589546
21
-414.00000061094778
31
0
0
LINE
5
132
100
AcDbEntity
8
0
100
AcDbLine
10
128.28354249589546
20
-491.00000061094784
30
0
11
212.28354255550013
21
-491.00000061094784
31
0
0
LINE
5
133
100
AcDbEntity
8
0
100
AcDbLine
10
212.28354255550013
20
-485.00000061094784
30
0
11
333.28354319624998
21
-485.00000061094784
31
0
0
LINE
5
134
100
AcDbEntity
8
0
100
AcDbLine
10
212.28354249589546
20
-420.00000061094784
30
0
11
333.28354319624998
21
-420.00000061094784
31
0
0
LINE
5
135
100
AcDbEntity
8
0
100
AcDbLine
10
339.28354319624998
20
-464.50000061094784
30
0
11
333.28354319624998
21
-464.50000061094784
31
0
0
LINE
5
136
100
AcDbEntity
8
0
100
AcDbLine
10
339.28354319624998
20
-440.50000061094778
30
0
11
333.28354319624998
21
-440.50000061094778
31
0
0
LINE
5
137
100
AcDbEntity
8
0
100
AcDbLine
10
339.28354319624998
20
-440.50000061094778
30
0
11
339.28354319624998
21
-464.50000061094784
31
0
0
LINE
5
138
100
AcDbEntity
8
0
100
AcDbLine
10
333.28354319624998
20
-464.50000061094784
30
0
11
333.28354319624998
21
-485.00000061094784
31
0
0
LINE
5
139
100
AcDbEntity
8
0
100
AcDbLine
10
333.28354319624998
20
-440.50000061094778
30
0
11
333.28354319624998
21
-420
31
0
0
LINE
5
140
100
AcDbEntity
8
0
100
AcDbLine
10
128.28354249589546
20
-616.00000061094784
30
0
11
128.28354249589546
21
-610.00000061094784
31
0
0
LINE
5
141
100
AcDbEntity
8
0
100
AcDbLine
10
333.28354319624992
20
-589.50000061094784
30
0
11
333.28354319624992
21
-610.00000061094784
31
0
0
LINE
5
142
100
AcDbEntity
8
0
100
AcDbLine
10
7.2835418551453301
20
-565.50000061094784
30
0
11
1.283541855145387
21
-565.50000061094784
31
0
0
LINE
5
143
100
AcDbEntity
8
0
100
AcDbLine
10
212.28354249589543
20
-545.00000061094784
30
0
11
333.28354319624992
21
-545.00000061094784
31
0
0
LINE
5
144
100
AcDbEntity
8
0
100
AcDbLine
10
128.28354249589546
20
-610.00000061094784
30
0
11
7.2835418551453301
21
-610.00000061094784
31
0
0
LINE
5
145
100
AcDbEntity
8
0
100
AcDbLine
10
339.28354319624998
20
-565.50000061094784
30
0
11
339.28354319624998
21
-589.50000061094784
31
0
0
LINE
5
146
100
AcDbEntity
8
0
100
AcDbLine
10
339.28354319624998
20
-565.50000061094784
30
0
11
333.28354319624992
21
-565.50000061094784
31
0
0
LINE
5
147
100
AcDbEntity
8
0
100
AcDbLine
10
212.28354255550016
20
-616.00000061094784
30
0
11
212.28354255550016
21
-610.00000061094784
31
0
0
LINE
5
148
100
AcDbEntity
8
0
100
AcDbLine
10
128.28354243629079
20
-539.00000061094784
30
0
11
128.28354243629079
21
-545.00000061094784
31
0
0
LINE
5
149
100
AcDbEntity
8
0
100
AcDbLine
10
1.283541855145387
20
-589.50000061094784
30
0
11
7.2835418551453301
21
-589.50000061094784
31
0
0
LINE
5
150
100
AcDbEntity
8
0
100
AcDbLine
10
1.283541855145387
20
-565.50000061094784
30
0
11
1.283541855145387
21
-589.50000061094784
31
0
0
LINE
5
151
100
AcDbEntity
8
0
100
AcDbLine
10
7.2835418551453301
20
-545.00000061094784
30
0
11
128.28354243629079
21
-545.00000061094784
31
0
0
LINE
5
152
100
AcDbEntity
8
0
100
AcDbLine
10
212.28354249589543
20
-539.00000061094784
30
0
11
212.28354249589543
21
-545.00000061094784
31
0
0
LINE
5
153
100
AcDbEntity
8
0
100
AcDbLine
10
128.28354249589546
20
-616.00000061094784
30
0
11
212.28354255550016
21
-616.00000061094784
31
0
0
LINE
5
154
100
AcDbEntity
8
0
100
AcDbLine
10
128.28354243629079
20
-539.00000061094784
30
0
11
212.28354249589543
21
-539.00000061094784
31
0
0
LINE
5
155
100
AcDbEntity
8
0
100
AcDbLine
10
333.28354319624992
20
-565.50000061094784
30
0
11
333.28354319624992
21
-545
31
0
0
LINE
5
156
100
AcDbEntity
8
0
100
AcDbLine
10
7.2835418551453301
20
-565.50000061094784
30
0
11
7.2835418551453301
21
-545.00000061094784
31
0
0
LINE
5
157
100
AcDbEntity
8
0
100
AcDbLine
10
212.28354255550016
20
-610.00000061094784
30
0
11
333.28354319624992
21
-610.00000061094784
31
0
0
LINE
5
158
100
AcDbEntity
8
0
100
AcDbLine
10
339.28354319624998
20
-589.50000061094784
30
0
11
333.28354319624992
21
-589.50000061094784
31
0
0
LINE
5
159
100
AcDbEntity
8
0
100
AcDbLine
10
7.2835418551453301
20
-610.00000061094784
30
0
11
7.2835418551453301
21
-589.50000061094784
31
0
0
ENDSEC
0
SECTION
2
OBJECTS
0
DICTIONARY
5
C
100
AcDbDictionary
3
ACAD_GROUP
350
D
3
ACAD_MLINESTYLE
350
17
0
DICTIONARY
5
D
100
AcDbDictionary
0
DICTIONARY
5
1A
330
C
100
AcDbDictionary
0
DICTIONARY
5
17
100
AcDbDictionary
0
ENDSEC
0
EOF
