0
SECTION
2
HEADER
9
$INSUNITS
70
4
9
$ACADVER
1
AC1014
9
$HANDSEED
5
FFFF
0
ENDSEC
0
SECTION
2
TABLES
0
TABLE
2
VPORT
5
8
100
AcDbSymbolTable
0
ENDTAB
0
TABLE
2
LTYPE
5
5
100
AcDbSymbolTable
0
LTYPE
5
14
100
AcDbSymbolTableRecord
100
AcDbLinetypeTableRecord
2
BYBLOCK
70
0
0
LTYPE
5
15
100
AcDbSymbolTableRecord
100
AcDbLinetypeTableRecord
2
BYLAYER
70
0
0
ENDTAB
0
TABLE
2
LAYER
5
2
100
AcDbSymbolTable
70
2
0
LAYER
5
50
100
AcDbSymbolTableRecord
100
AcDbLayerTableRecord
2
0
70
0
6
CONTINUOUS
0
ENDTAB
0
TABLE
2
STYLE
5
3
100
AcDbSymbolTable
70
1
0
STYLE
5
11
100
AcDbSymbolTableRecord
100
AcDbTextStyleTableRecord
2
STANDARD
70
0
0
ENDTAB
0
TABLE
2
VIEW
5
6
100
AcDbSymbolTable
70
0
0
ENDTAB
0
TABLE
2
UCS
5
7
100
AcDbSymbolTable
70
0
0
ENDTAB
0
TABLE
2
APPID
5
9
100
AcDbSymbolTable
70
2
0
APPID
5
12
100
AcDbSymbolTableRecord
100
AcDbRegAppTableRecord
2
ACAD
70
0
0
ENDTAB
0
TABLE
2
DIMSTYLE
5
A
100
AcDbSymbolTable
70
1
0
ENDTAB
0
TABLE
2
BLOCK_RECORD
5
1
100
AcDbSymbolTable
70
1
0
BLOCK_RECORD
5
1F
100
AcDbSymbolTableRecord
100
AcDbBlockTableRecord
2
*MODEL_SPACE
0
BLOCK_RECORD
5
1B
100
AcDbSymbolTableRecord
100
AcDbBlockTableRecord
2
*PAPER_SPACE
0
ENDTAB
0
ENDSEC
0
SECTION
2
BLOCKS
0
BLOCK
5
20
100
AcDbEntity
100
AcDbBlockBegin
2
*MODEL_SPACE
0
ENDBLK
5
21
100
AcDbEntity
100
AcDbBlockEnd
0
BLOCK
5
1C
100
AcDbEntity
100
AcDbBlockBegin
2
*PAPER_SPACE
0
ENDBLK
5
1D
100
AcDbEntity
100
AcDbBlockEnd
0
ENDSEC
0
SECTION
2
ENTITIES
0
LWPOLYLINE
5
100
100
AcDbEntity
8
0
100
AcDbPolyline
90
36
70
1
43
0.0
10
-544.00000464916229
20
-42
10
-473.00000400841236
20
-42
10
-473.00000400841236
20
-47.000000670552254
10
-389.00000394880772
20
-47.000000670552254
10
-389.00000394880772
20
-42
10
-309.00000400841236
20
-42
10
-309.00000400841236
20
-47.000000670552254
10
-225.00000394880772
20
-47.000000670552254
10
-225.00000394880772
20
-42
10
-145.00000400841236
20
-42
10
-145.00000400841236
20
-47.000000670552254
10
-61.000003948807731
20
-47.000000670552254
10
-61.000003948807731
20
-42
10
9.9999966919423287
20
-41.999999999999993
10
9.9999966919423287
20
-168.00000064075007
10
4.999996021390074
20
-168.00000064075007
10
4.999996021390074
20
-252.00000070035475
10
9.9999966919423287
20
-252.00000070035475
10
9.9999966919423322
20
-378.00000134110451
10
-61.000003948807624
20
-378.00000134110451
10
-61.000003948807624
20
-373.00000067055225
10
-145.00000400841228
20
-373.00000067055225
10
-145.00000400841228
20
-378.00000134110451
10
-225.0000039488076
20
-378.00000134110451
10
-225.0000039488076
20
-373.00000067055225
10
-309.00000400841225
20
-373.00000067055225
10
-309.00000400841225
20
-378.00000134110451
10
-389.00000394880749
20
-378.00000134110451
10
-389.00000394880749
20
-373.00000067055225
10
-473.00000400841225
20
-373.00000067055231
10
-473.00000400841225
20
-378.00000134110456
10
-544.00000464916229
20
-378.00000134110456
10
-544.00000464916229
20
-252.00000064075005
10
-539.00000397861004
20
-252.00000064075005
10
-539.00000397861004
20
-168.00000058114537
10
-544.00000464916229
20
-168.00000058114537
0
LWPOLYLINE
5
101
100
AcDbEntity
8
0
100
AcDbPolyline
90
36
70
1
43
0.0
10
-544.00000464916229
20
92.999999359249941
10
-539.00000397861004
20
92.999999359249941
10
-539.00000397861004
20
176.99999941885463
10
-544.00000464916229
20
176.99999941885463
10
-544.00000464916229
20
303
10
-473.00000400841236
20
303
10
-473.00000400841236
20
297.99999932944775
10
-389.00000394880772
20
297.99999932944775
10
-389.00000394880772
20
303
10
-309.00000400841236
20
303
10
-309.00000400841236
20
297.99999932944775
10
-225.00000394880772
20
297.99999932944775
10
-225.00000394880772
20
303
10
-145.00000400841236
20
303
10
-145.00000400841236
20
297.99999932944775
10
-61.000003948807731
20
297.99999932944775
10
-61.000003948807731
20
303
10
9.9999966919423287
20
303
10
9.9999966919423287
20
176.99999935924993
10
4.999996021390074
20
176.99999935924993
10
4.999996021390074
20
92.999999299645253
10
9.9999966919423287
20
92.999999299645253
10
9.9999966919423322
20
-33.000001341104479
10
-61.000003948807624
20
-33.000001341104479
10
-61.000003948807624
20
-28.000000670552225
10
-145.00000400841228
20
-28.000000670552225
10
-145.00000400841228
20
-33.000001341104479
10
-225.0000039488076
20
-33.000001341104479
10
-225.0000039488076
20
-28.000000670552225
10
-309.00000400841225
20
-28.000000670552225
10
-309.00000400841225
20
-33.000001341104479
10
-389.00000394880749
20
-33.000001341104479
10
-389.00000394880749
20
-28.000000670552225
10
-473.00000400841225
20
-28.000000670552296
10
-473.00000400841225
20
-33.00000134110455
10
-544.00000464916229
20
-33.00000134110455
0
CIRCLE
5
102
100
AcDbEntity
8
0
100
AcDbCircle
10
-345.99999999999994
20
-210
30
0
40
2.999999999999996
210
0
220
0
230
1
0
CIRCLE
5
103
100
AcDbEntity
8
0
100
AcDbCircle
10
-395.99999999999994
20
-260
30
0
40
2.999999999999996
210
0
220
0
230
1
0
LINE
5
104
100
AcDbEntity
8
0
100
AcDbLine
10
5.000000074505806
20
-439.98008324473358
30
0
11
5.000000074505806
21
-422.49004482611645
31
0
0
LINE
5
105
100
AcDbEntity
8
0
100
AcDbLine
10
-61.000003948807588
20
-539.99004482611645
30
0
11
-61.000003948807588
21
-534.980083468251
31
0
0
LINE
5
106
100
AcDbEntity
8
0
100
AcDbLine
10
5.000000074505806
20
-519.98008324473358
30
0
11
5.000000074505806
21
-502.49004482611645
31
0
0
LINE
5
107
100
AcDbEntity
8
0
100
AcDbLine
10
5.000000074505806
20
-485.00000640749931
30
0
11
5.000000074505806
21
-502.49004482611645
31
0
0
LWPOLYLINE
5
108
100
AcDbEntity
8
0
100
AcDbPolyline
90
8
70
1
43
0.0
10
-39.357864376269035
20
-129.64213562373092
10
-39.357864376269035
20
-82.357864376269021
42
0.41421356237309453
10
-44.357864376269056
20
-77.357864376269035
10
-191.64213562373095
20
-77.357864376269035
42
0.41421356237309193
10
-196.64213562373092
20
-82.357864376269021
10
-196.64213562373092
20
-129.64213562373092
42
0.41421356237309193
10
-191.64213562373095
20
-134.64213562373092
10
-44.357864376269035
20
-134.64213562373092
42
0.41421356237309453
0
CIRCLE
5
109
100
AcDbEntity
8
0
100
AcDbCircle
10
-395.99999999999994
20
-210
30
0
40
31.500000000000014
210
0
220
0
230
1
0
LINE
5
110
100
AcDbEntity
8
0
100
AcDbLine
10
-61.000003948807624
20
-384.99004482611645
30
0
11
-61.000003948807624
21
-390.0000061839819
31
0
0
LWPOLYLINE
5
111
100
AcDbEntity
8
0
100
AcDbPolyline
90
8
70
1
43
0.0
10
-25.677669529663703
20
-337.32233047033628
42
-0.41421356237310231
10
-30.677669529663696
20
-342.32233047033628
10
-205.32233047033631
20
-342.32233047033628
42
-0.41421356237310125
10
-210.32233047033628
20
-337.32233047033628
10
-210.32233047033628
20
-192.67766952966369
42
-0.41421356237309293
10
-205.32233047033631
20
-187.67766952966369
10
-30.677669529663696
20
-187.67766952966369
42
-0.41421356237309453
10
-25.677669529663703
20
-192.67766952966369
0
LINE
5
112
100
AcDbEntity
8
0
100
AcDbLine
10
4.999996021390074
20
92.999999299645253
30
0
11
4.999996021390074
21
176.99999935924993
31
0
0
CIRCLE
5
113
100
AcDbEntity
8
0
100
AcDbCircle
10
-218.00151011402221
20
-350.00151011402227
30
0
40
3.00000000000002
210
0
220
0
230
1
0
LINE
5
114
100
AcDbEntity
8
0
100
AcDbLine
10
-225.0000039488076
20
-459.99004482611645
30
0
11
-225.0000039488076
21
-454.980083468251
31
0
0
LINE
5
115
100
AcDbEntity
8
0
100
AcDbLine
10
32.795220063314417
20
-537.49999727681325
30
0
11
32.795220063314417
21
-532.49999727681325
31
0
0
LINE
5
116
100
AcDbEntity
8
0
100
AcDbLine
10
-61.000003948807624
20
-464.99004482611645
30
0
11
-145.00000400841228
21
-464.99004482611645
31
0
0
LINE
5
117
100
AcDbEntity
8
0
100
AcDbLine
10
-389.00000394880749
20
-539.99004482611645
30
0
11
-473.00000400841225
21
-539.99004482611645
31
0
0
LINE
5
118
100
AcDbEntity
8
0
100
AcDbLine
10
-145.00000400841228
20
-470.0000061839819
30
0
11
-145.00000400841228
21
-464.99004482611645
31
0
0
LINE
5
119
100
AcDbEntity
8
0
100
AcDbLine
10
-225.0000039488076
20
-454.980083468251
30
0
11
-145.00000400841225
21
-454.980083468251
31
0
0
LINE
5
120
100
AcDbEntity
8
0
100
AcDbLine
10
-225.0000039488076
20
-534.980083468251
30
0
11
-145.00000400841225
21
-534.980083468251
31
0
0
LINE
5
121
100
AcDbEntity
8
0
100
AcDbLine
10
-145.00000400841225
20
-534.980083468251
30
0
11
-145.00000400841225
21
-539.99004482611645
31
0
0
LINE
5
122
100
AcDbEntity
8
0
100
AcDbLine
10
-473.00000400841225
20
-464.99004482611645
30
0
11
-473.00000400841225
21
-470.0000061839819
31
0
0
CIRCLE
5
123
100
AcDbEntity
8
0
100
AcDbCircle
10
-18.712667734976236
20
-70.712667734976193
30
0
40
2.9999999999999982
210
0
220
0
230
1
0
LINE
5
124
100
AcDbEntity
8
0
100
AcDbLine
10
-225.0000039488076
20
-390.0000061839819
30
0
11
-145.00000400841228
21
-390.0000061839819
31
0
0
LINE
5
125
100
AcDbEntity
8
0
100
AcDbLine
10
-225.0000039488076
20
-464.99004482611645
30
0
11
-225.0000039488076
21
-470.0000061839819
31
0
0
CIRCLE
5
126
100
AcDbEntity
8
0
100
AcDbCircle
10
-17.998489885977826
20
-142.00151011402227
30
0
40
3.0000000000000071
210
0
220
0
230
1
0
LINE
5
127
100
AcDbEntity
8
0
100
AcDbLine
10
-389.00000394880749
20
-470.0000061839819
30
0
11
-309.00000400841225
21
-470.0000061839819
31
0
0
LINE
5
128
100
AcDbEntity
8
0
100
AcDbLine
10
4.999996021390074
20
176.99999935924993
30
0
11
9.9999966919423287
21
176.99999935924993
31
0
0
LINE
5
129
100
AcDbEntity
8
0
100
AcDbLine
10
32.795220063314417
20
-537.49999727681325
30
0
11
50.295213976190297
21
-537.49999727681325
31
0
0
LINE
5
130
100
AcDbEntity
8
0
100
AcDbLine
10
-225.0000039488076
20
-539.99004482611645
30
0
11
-225.0000039488076
21
-534.980083468251
31
0
0
LINE
5
131
100
AcDbEntity
8
0
100
AcDbLine
10
-145.00000400841225
20
-454.980083468251
30
0
11
-145.00000400841225
21
-459.99004482611645
31
0
0
LINE
5
132
100
AcDbEntity
8
0
100
AcDbLine
10
5.000000074505806
20
-405.00000640749931
30
0
11
5.000000074505806
21
-422.49004482611645
31
0
0
LINE
5
133
100
AcDbEntity
8
0
100
AcDbLine
10
4.999996021390074
20
-252.00000070035475
30
0
11
9.9999966919423287
21
-252.00000070035475
31
0
0
CIRCLE
5
134
100
AcDbEntity
8
0
100
AcDbCircle
10
-218.00151011402224
20
-69.998489885977762
30
0
40
2.9999999999999982
210
0
220
0
230
1
0
LINE
5
135
100
AcDbEntity
8
0
100
AcDbLine
10
-309.00000400841225
20
-470.0000061839819
30
0
11
-309.00000400841225
21
-464.99004482611645
31
0
0
LINE
5
136
100
AcDbEntity
8
0
100
AcDbLine
10
-145.00000400841228
20
-390.0000061839819
30
0
11
-145.00000400841228
21
-384.99004482611645
31
0
0
LINE
5
137
100
AcDbEntity
8
0
100
AcDbLine
10
-61.000003948807588
20
-459.99004482611645
30
0
11
-61.000003948807588
21
-454.980083468251
31
0
0
LINE
5
138
100
AcDbEntity
8
0
100
AcDbLine
10
-61.000003948807624
20
-464.99004482611645
30
0
11
-61.000003948807624
21
-470.0000061839819
31
0
0
LINE
5
139
100
AcDbEntity
8
0
100
AcDbLine
10
-225.0000039488076
20
-470.0000061839819
30
0
11
-145.00000400841228
21
-470.0000061839819
31
0
0
CIRCLE
5
140
100
AcDbEntity
8
0
100
AcDbCircle
10
-17.998489885977783
20
-350.00151011402227
30
0
40
3.000000000000016
210
0
220
0
230
1
0
LINE
5
141
100
AcDbEntity
8
0
100
AcDbLine
10
4.999996021390074
20
92.999999299645253
30
0
11
9.9999966919423287
21
92.999999299645253
31
0
0
LINE
5
142
100
AcDbEntity
8
0
100
AcDbLine
10
-539.00000803172588
20
-485.00000640749931
30
0
11
-539.00000803172588
21
-502.49004482611645
31
0
0
LINE
5
143
100
AcDbEntity
8
0
100
AcDbLine
10
-473.00000400841225
20
-384.99004482611645
30
0
11
-473.00000400841225
21
-390.0000061839819
31
0
0
LINE
5
144
100
AcDbEntity
8
0
100
AcDbLine
10
67.795207889066177
20
-532.49999727681325
30
0
11
82.795213976190368
21
-532.49999727681325
31
0
0
LINE
5
145
100
AcDbEntity
8
0
100
AcDbLine
10
-389.00000394880749
20
-534.980083468251
30
0
11
-309.00000400841225
21
-534.980083468251
31
0
0
LINE
5
146
100
AcDbEntity
8
0
100
AcDbLine
10
17.795213976190372
20
-411.49999663606343
30
0
11
17.795213976190301
21
-532.49999727681325
31
0
0
LINE
5
147
100
AcDbEntity
8
0
100
AcDbLine
10
-61.000003948807588
20
-459.99004482611645
30
0
11
-145.00000400841225
21
-459.99004482611645
31
0
0
LINE
5
148
100
AcDbEntity
8
0
100
AcDbLine
10
-544.00000464916229
20
-534.980083468251
30
0
11
-544.00000464916229
21
-519.98008324473358
31
0
0
LINE
5
149
100
AcDbEntity
8
0
100
AcDbLine
10
12.795213976190301
20
-327.49999657645873
30
0
11
12.795213976190372
21
-411.49999663606343
31
0
0
LINE
5
150
100
AcDbEntity
8
0
100
AcDbLine
10
-389.00000394880749
20
-539.99004482611645
30
0
11
-389.00000394880749
21
-534.980083468251
31
0
0
LINE
5
151
100
AcDbEntity
8
0
100
AcDbLine
10
12.795213976190301
20
-327.49999657645873
30
0
11
17.795213976190301
21
-327.49999657645873
31
0
0
LINE
5
152
100
AcDbEntity
8
0
100
AcDbLine
10
-61.000003948807588
20
-539.99004482611645
30
0
11
-145.00000400841225
21
-539.99004482611645
31
0
0
CIRCLE
5
153
100
AcDbEntity
8
0
100
AcDbCircle
10
-218.00151011402224
20
-142.00151011402227
30
0
40
3.0000000000000169
210
0
220
0
230
1
0
LINE
5
154
100
AcDbEntity
8
0
100
AcDbLine
10
-544.00000464916229
20
-519.98008324473358
30
0
11
-539.00000803172588
21
-519.98008324473358
31
0
0
LINE
5
155
100
AcDbEntity
8
0
100
AcDbLine
10
-389.00000394880749
20
-459.99004482611645
30
0
11
-473.00000400841225
21
-459.99004482611645
31
0
0
LINE
5
156
100
AcDbEntity
8
0
100
AcDbLine
10
-473.00000400841225
20
-470.0000061839819
30
0
11
-544.00000464916229
21
-470.0000061839819
31
0
0
LINE
5
157
100
AcDbEntity
8
0
100
AcDbLine
10
-389.00000394880749
20
-464.99004482611645
30
0
11
-389.00000394880749
21
-470.0000061839819
31
0
0
LINE
5
158
100
AcDbEntity
8
0
100
AcDbLine
10
-473.00000400841225
20
-539.99004482611645
30
0
11
-473.00000400841225
21
-534.980083468251
31
0
0
CIRCLE
5
159
100
AcDbEntity
8
0
100
AcDbCircle
10
-218.00151011402221
20
-179.99848988597779
30
0
40
3.0000000000000142
210
0
220
0
230
1
0
LINE
5
160
100
AcDbEntity
8
0
100
AcDbLine
10
-225.0000039488076
20
-384.99004482611645
30
0
11
-225.0000039488076
21
-390.0000061839819
31
0
0
LINE
5
161
100
AcDbEntity
8
0
100
AcDbLine
10
-309.00000400841225
20
-534.980083468251
30
0
11
-309.00000400841225
21
-539.99004482611645
31
0
0
LINE
5
162
100
AcDbEntity
8
0
100
AcDbLine
10
-544.00000464916229
20
-485.00000640749931
30
0
11
-539.00000803172588
21
-485.00000640749931
31
0
0
LINE
5
163
100
AcDbEntity
8
0
100
AcDbLine
10
-61.000003948807624
20
-384.99004482611645
30
0
11
-145.00000400841228
21
-384.99004482611645
31
0
0
LINE
5
164
100
AcDbEntity
8
0
100
AcDbLine
10
82.795213976190368
20
-411.49999663606343
30
0
11
82.795213976190368
21
-532.49999727681325
31
0
0
LINE
5
165
100
AcDbEntity
8
0
100
AcDbLine
10
67.795207889066177
20
-537.49999727681325
30
0
11
67.795207889066177
21
-532.49999727681325
31
0
0
LINE
5
166
100
AcDbEntity
8
0
100
AcDbLine
10
-473.00000400841225
20
-534.980083468251
30
0
11
-544.00000464916229
21
-534.980083468251
31
0
0
LINE
5
167
100
AcDbEntity
8
0
100
AcDbLine
10
67.795207889066177
20
-537.49999727681325
30
0
11
50.295213976190297
21
-537.49999727681325
31
0
0
LINE
5
168
100
AcDbEntity
8
0
100
AcDbLine
10
-539.00000803172588
20
-519.98008324473358
30
0
11
-539.00000803172588
21
-502.49004482611645
31
0
0
LINE
5
169
100
AcDbEntity
8
0
100
AcDbLine
10
-389.00000394880749
20
-464.99004482611645
30
0
11
-473.00000400841225
21
-464.99004482611645
31
0
0
LINE
5
170
100
AcDbEntity
8
0
100
AcDbLine
10
87.795213976190439
20
-327.49999657645873
30
0
11
82.795213976190439
21
-327.49999657645873
31
0
0
CIRCLE
5
171
100
AcDbEntity
8
0
100
AcDbCircle
10
-17.998489885977783
20
-179.99848988597779
30
0
40
2.9999999999999987
210
0
220
0
230
1
0
LINE
5
172
100
AcDbEntity
8
0
100
AcDbLine
10
-544.00000464916229
20
-470.0000061839819
30
0
11
-544.00000464916229
21
-485.00000640749931
31
0
0
LINE
5
173
100
AcDbEntity
8
0
100
AcDbLine
10
4.999996021390074
20
-168.00000064075007
30
0
11
9.9999966919423287
21
-168.00000064075007
31
0
0
LINE
5
174
100
AcDbEntity
8
0
100
AcDbLine
10
5.000000074505806
20
-519.98008324473358
30
0
11
10
21
-519.98008324473358
31
0
0
LINE
5
175
100
AcDbEntity
8
0
100
AcDbLine
10
-309.00000400841225
20
-454.980083468251
30
0
11
-309.00000400841225
21
-459.99004482611645
31
0
0
LINE
5
176
100
AcDbEntity
8
0
100
AcDbLine
10
-389.00000394880749
20
-390.0000061839819
30
0
11
-309.00000400841225
21
-390.0000061839819
31
0
0
LINE
5
177
100
AcDbEntity
8
0
100
AcDbLine
10
-389.00000394880749
20
-459.99004482611645
30
0
11
-389.00000394880749
21
-454.980083468251
31
0
0
LINE
5
178
100
AcDbEntity
8
0
100
AcDbLine
10
-61.000003948807624
20
-390.0000061839819
30
0
11
10
21
-390.0000061839819
31
0
0
LINE
5
179
100
AcDbEntity
8
0
100
AcDbLine
10
-61.000003948807624
20
-470.0000061839819
30
0
11
10
21
-470.0000061839819
31
0
0
LINE
5
180
100
AcDbEntity
8
0
100
AcDbLine
10
-309.00000400841225
20
-390.0000061839819
30
0
11
-309.00000400841225
21
-384.99004482611645
31
0
0
LINE
5
181
100
AcDbEntity
8
0
100
AcDbLine
10
10
20
-519.98008324473358
30
0
11
10
21
-534.980083468251
31
0
0
LINE
5
182
100
AcDbEntity
8
0
100
AcDbLine
10
-389.00000394880749
20
-384.99004482611645
30
0
11
-389.00000394880749
21
-390.0000061839819
31
0
0
LINE
5
183
100
AcDbEntity
8
0
100
AcDbLine
10
-61.000003948807588
20
-534.980083468251
30
0
11
10
21
-534.980083468251
31
0
0
LINE
5
184
100
AcDbEntity
8
0
100
AcDbLine
10
-389.00000394880749
20
-454.980083468251
30
0
11
-309.00000400841225
21
-454.980083468251
31
0
0
LINE
5
185
100
AcDbEntity
8
0
100
AcDbLine
10
5.000000074505806
20
-439.98008324473358
30
0
11
10
21
-439.98008324473358
31
0
0
LINE
5
186
100
AcDbEntity
8
0
100
AcDbLine
10
10
20
-405.00000640749931
30
0
11
10
21
-390.0000061839819
31
0
0
LINE
5
187
100
AcDbEntity
8
0
100
AcDbLine
10
10
20
-439.98008324473358
30
0
11
10
21
-454.980083468251
31
0
0
LINE
5
188
100
AcDbEntity
8
0
100
AcDbLine
10
10
20
-485.00000640749931
30
0
11
10
21
-470.0000061839819
31
0
0
LINE
5
189
100
AcDbEntity
8
0
100
AcDbLine
10
-225.0000039488076
20
-539.99004482611645
30
0
11
-309.00000400841225
21
-539.99004482611645
31
0
0
LINE
5
190
100
AcDbEntity
8
0
100
AcDbLine
10
-389.00000394880749
20
-384.99004482611645
30
0
11
-473.00000400841225
21
-384.99004482611645
31
0
0
LINE
5
191
100
AcDbEntity
8
0
100
AcDbLine
10
-473.00000400841225
20
-459.99004482611645
30
0
11
-473.00000400841225
21
-454.980083468251
31
0
0
LINE
5
192
100
AcDbEntity
8
0
100
AcDbLine
10
4.999996021390074
20
-252.00000070035475
30
0
11
4.999996021390074
21
-168.00000064075007
31
0
0
LINE
5
193
100
AcDbEntity
8
0
100
AcDbLine
10
-544.00000464916229
20
-439.98008324473358
30
0
11
-539.00000803172588
21
-439.98008324473358
31
0
0
LINE
5
194
100
AcDbEntity
8
0
100
AcDbLine
10
17.795213976190301
20
-327.49999657645873
30
0
11
17.795213976190372
21
-206.49999593570868
31
0
0
LINE
5
195
100
AcDbEntity
8
0
100
AcDbLine
10
67.79520788906639
20
-201.49999593570868
30
0
11
50.295213976190368
21
-201.49999593570868
31
0
0
LINE
5
196
100
AcDbEntity
8
0
100
AcDbLine
10
82.795213976190439
20
-327.49999657645873
30
0
11
82.795213976190439
21
-206.49999593570863
31
0
0
LINE
5
197
100
AcDbEntity
8
0
100
AcDbLine
10
-544.00000464916229
20
-390.0000061839819
30
0
11
-544.00000464916229
21
-405.00000640749931
31
0
0
LINE
5
198
100
AcDbEntity
8
0
100
AcDbLine
10
32.795220063314346
20
-201.49999593570868
30
0
11
50.295213976190368
21
-201.49999593570868
31
0
0
LINE
5
199
100
AcDbEntity
8
0
100
AcDbLine
10
-539.00000803172588
20
-439.98008324473358
30
0
11
-539.00000803172588
21
-422.49004482611645
31
0
0
LINE
5
200
100
AcDbEntity
8
0
100
AcDbLine
10
67.79520788906639
20
-206.49999593570868
30
0
11
82.795213976190439
21
-206.49999593570863
31
0
0
LINE
5
201
100
AcDbEntity
8
0
100
AcDbLine
10
67.79520788906639
20
-201.49999593570868
30
0
11
67.79520788906639
21
-206.49999593570868
31
0
0
LINE
5
202
100
AcDbEntity
8
0
100
AcDbLine
10
87.795213976190368
20
-411.49999663606343
30
0
11
82.795213976190368
21
-411.49999663606343
31
0
0
LINE
5
203
100
AcDbEntity
8
0
100
AcDbLine
10
-473.00000400841225
20
-454.980083468251
30
0
11
-544.00000464916229
21
-454.980083468251
31
0
0
LINE
5
204
100
AcDbEntity
8
0
100
AcDbLine
10
32.795220063314417
20
-532.49999727681325
30
0
11
17.795213976190301
21
-532.49999727681325
31
0
0
LINE
5
205
100
AcDbEntity
8
0
100
AcDbLine
10
-544.00000464916229
20
-405.00000640749931
30
0
11
-539.00000803172588
21
-405.00000640749931
31
0
0
LINE
5
206
100
AcDbEntity
8
0
100
AcDbLine
10
12.795213976190372
20
-411.49999663606343
30
0
11
17.795213976190372
21
-411.49999663606343
31
0
0
LINE
5
207
100
AcDbEntity
8
0
100
AcDbLine
10
-544.00000464916229
20
-454.980083468251
30
0
11
-544.00000464916229
21
-439.98008324473358
31
0
0
LINE
5
208
100
AcDbEntity
8
0
100
AcDbLine
10
32.795220063314346
20
-206.49999593570868
30
0
11
17.795213976190372
21
-206.49999593570868
31
0
0
LINE
5
209
100
AcDbEntity
8
0
100
AcDbLine
10
-225.0000039488076
20
-384.99004482611645
30
0
11
-309.00000400841225
21
-384.99004482611645
31
0
0
LINE
5
210
100
AcDbEntity
8
0
100
AcDbLine
10
-225.0000039488076
20
-459.99004482611645
30
0
11
-309.00000400841225
21
-459.99004482611645
31
0
0
LINE
5
211
100
AcDbEntity
8
0
100
AcDbLine
10
87.795213976190439
20
-327.49999657645873
30
0
11
87.795213976190368
21
-411.49999663606343
31
0
0
LINE
5
212
100
AcDbEntity
8
0
100
AcDbLine
10
-225.0000039488076
20
-464.99004482611645
30
0
11
-309.00000400841225
21
-464.99004482611645
31
0
0
LINE
5
213
100
AcDbEntity
8
0
100
AcDbLine
10
32.795220063314346
20
-201.49999593570868
30
0
11
32.795220063314346
21
-206.49999593570868
31
0
0
LINE
5
214
100
AcDbEntity
8
0
100
AcDbLine
10
-473.00000400841225
20
-390.0000061839819
30
0
11
-544.00000464916229
21
-390.0000061839819
31
0
0
LINE
5
215
100
AcDbEntity
8
0
100
AcDbLine
10
-539.00000803172588
20
-405.00000640749931
30
0
11
-539.00000803172588
21
-422.49004482611645
31
0
0
CIRCLE
5
216
100
AcDbEntity
8
0
100
AcDbCircle
10
-395.99999999999994
20
-160
30
0
40
2.999999999999996
210
0
220
0
230
1
0
CIRCLE
5
217
100
AcDbEntity
8
0
100
AcDbCircle
10
-445.99999999999994
20
-210
30
0
40
2.999999999999996
210
0
220
0
230
1
0
LINE
5
218
100
AcDbEntity
8
0
100
AcDbLine
10
5.000000074505806
20
-405.00000640749931
30
0
11
10
21
-405.00000640749931
31
0
0
LINE
5
219
100
AcDbEntity
8
0
100
AcDbLine
10
5.000000074505806
20
-485.00000640749931
30
0
11
10
21
-485.00000640749931
31
0
0
LINE
5
220
100
AcDbEntity
8
0
100
AcDbLine
10
-61.000003948807588
20
-454.980083468251
30
0
11
10
21
-454.980083468251
31
0
0
LINE
5
221
100
AcDbEntity
8
0
100
AcDbLine
10
32.795220063314346
20
148.50000406429132
30
0
11
50.295213976190368
21
148.50000406429132
31
0
0
LINE
5
222
100
AcDbEntity
8
0
100
AcDbLine
10
67.79520788906639
20
143.50000406429132
30
0
11
82.795213976190439
21
143.50000406429137
31
0
0
LINE
5
223
100
AcDbEntity
8
0
100
AcDbLine
10
82.795213976190439
20
22.500003423541273
30
0
11
82.795213976190439
21
143.50000406429137
31
0
0
LINE
5
224
100
AcDbEntity
8
0
100
AcDbLine
10
87.795213976190439
20
22.500003423541273
30
0
11
82.795213976190439
21
22.500003423541273
31
0
0
LINE
5
225
100
AcDbEntity
8
0
100
AcDbLine
10
12.795213976190372
20
-61.499996636063443
30
0
11
17.795213976190372
21
-61.499996636063443
31
0
0
LINE
5
226
100
AcDbEntity
8
0
100
AcDbLine
10
12.795213976190301
20
22.500003423541273
30
0
11
12.795213976190372
21
-61.499996636063443
31
0
0
LINE
5
227
100
AcDbEntity
8
0
100
AcDbLine
10
87.795213976190368
20
-61.499996636063443
30
0
11
82.795213976190368
21
-61.499996636063443
31
0
0
LINE
5
228
100
AcDbEntity
8
0
100
AcDbLine
10
32.795220063314346
20
143.50000406429132
30
0
11
17.795213976190372
21
143.50000406429132
31
0
0
LINE
5
229
100
AcDbEntity
8
0
100
AcDbLine
10
12.795213976190301
20
22.500003423541273
30
0
11
17.795213976190301
21
22.500003423541273
31
0
0
LINE
5
230
100
AcDbEntity
8
0
100
AcDbLine
10
87.795213976190439
20
22.500003423541273
30
0
11
87.795213976190368
21
-61.499996636063443
31
0
0
LINE
5
231
100
AcDbEntity
8
0
100
AcDbLine
10
17.795213976190301
20
22.500003423541273
30
0
11
17.795213976190372
21
143.50000406429132
31
0
0
LINE
5
232
100
AcDbEntity
8
0
100
AcDbLine
10
17.795213976190372
20
-61.499996636063443
30
0
11
17.795213976190301
21
-182.49999727681319
31
0
0
LINE
5
233
100
AcDbEntity
8
0
100
AcDbLine
10
32.795220063314417
20
-182.49999727681319
30
0
11
17.795213976190301
21
-182.49999727681319
31
0
0
LINE
5
234
100
AcDbEntity
8
0
100
AcDbLine
10
67.79520788906639
20
148.50000406429132
30
0
11
50.295213976190368
21
148.50000406429132
31
0
0
LINE
5
235
100
AcDbEntity
8
0
100
AcDbLine
10
32.795220063314346
20
148.50000406429132
30
0
11
32.795220063314346
21
143.50000406429132
31
0
0
LINE
5
236
100
AcDbEntity
8
0
100
AcDbLine
10
67.79520788906639
20
148.50000406429132
30
0
11
67.79520788906639
21
143.50000406429132
31
0
0
LINE
5
237
100
AcDbEntity
8
0
100
AcDbLine
10
67.795207889066177
20
-182.49999727681319
30
0
11
82.795213976190368
21
-182.49999727681319
31
0
0
LINE
5
238
100
AcDbEntity
8
0
100
AcDbLine
10
82.795213976190368
20
-61.499996636063443
30
0
11
82.795213976190368
21
-182.49999727681319
31
0
0
LINE
5
239
100
AcDbEntity
8
0
100
AcDbLine
10
67.795207889066177
20
-187.49999727681319
30
0
11
50.295213976190297
21
-187.49999727681319
31
0
0
LINE
5
240
100
AcDbEntity
8
0
100
AcDbLine
10
32.795220063314417
20
-187.49999727681319
30
0
11
50.295213976190297
21
-187.49999727681319
31
0
0
LINE
5
241
100
AcDbEntity
8
0
100
AcDbLine
10
32.795220063314417
20
-187.49999727681319
30
0
11
32.795220063314417
21
-182.49999727681319
31
0
0
LINE
5
242
100
AcDbEntity
8
0
100
AcDbLine
10
67.795207889066177
20
-187.49999727681319
30
0
11
67.795207889066177
21
-182.49999727681319
31
0
0
ENDSEC
0
SECTION
2
OBJECTS
0
DICTIONARY
5
C
100
AcDbDictionary
3
ACAD_GROUP
350
D
3
ACAD_MLINESTYLE
350
17
0
DICTIONARY
5
D
100
AcDbDictionary
0
DICTIONARY
5
1A
330
C
100
AcDbDictionary
0
DICTIONARY
5
17
100
AcDbDictionary
0
ENDSEC
0
EOF
