0
SECTION
2
HEADER
9
$INSUNITS
70
4
9
$ACADVER
1
AC1014
9
$HANDSEED
5
FFFF
0
ENDSEC
0
SECTION
2
TABLES
0
TABLE
2
VPORT
5
8
100
AcDbSymbolTable
0
ENDTAB
0
TABLE
2
LTYPE
5
5
100
AcDbSymbolTable
0
LTYPE
5
14
100
AcDbSymbolTableRecord
100
AcDbLinetypeTableRecord
2
BYBLOCK
70
0
0
LTYPE
5
15
100
AcDbSymbolTableRecord
100
AcDbLinetypeTableRecord
2
BYLAYER
70
0
0
ENDTAB
0
TABLE
2
LAYER
5
2
100
AcDbSymbolTable
70
2
0
LAYER
5
50
100
AcDbSymbolTableRecord
100
AcDbLayerTableRecord
2
0
70
0
6
CONTINUOUS
0
ENDTAB
0
TABLE
2
STYLE
5
3
100
AcDbSymbolTable
70
1
0
STYLE
5
11
100
AcDbSymbolTableRecord
100
AcDbTextStyleTableRecord
2
STANDARD
70
0
0
ENDTAB
0
TABLE
2
VIEW
5
6
100
AcDbSymbolTable
70
0
0
ENDTAB
0
TABLE
2
UCS
5
7
100
AcDbSymbolTable
70
0
0
ENDTAB
0
TABLE
2
APPID
5
9
100
AcDbSymbolTable
70
2
0
APPID
5
12
100
AcDbSymbolTableRecord
100
AcDbRegAppTableRecord
2
ACAD
70
0
0
ENDTAB
0
TABLE
2
DIMSTYLE
5
A
100
AcDbSymbolTable
70
1
0
ENDTAB
0
TABLE
2
BLOCK_RECORD
5
1
100
AcDbSymbolTable
70
1
0
BLOCK_RECORD
5
1F
100
AcDbSymbolTableRecord
100
AcDbBlockTableRecord
2
*MODEL_SPACE
0
BLOCK_RECORD
5
1B
100
AcDbSymbolTableRecord
100
AcDbBlockTableRecord
2
*PAPER_SPACE
0
ENDTAB
0
ENDSEC
0
SECTION
2
BLOCKS
0
BLOCK
5
20
100
AcDbEntity
100
AcDbBlockBegin
2
*MODEL_SPACE
0
ENDBLK
5
21
100
AcDbEntity
100
AcDbBlockEnd
0
BLOCK
5
1C
100
AcDbEntity
100
AcDbBlockBegin
2
*PAPER_SPACE
0
ENDBLK
5
1D
100
AcDbEntity
100
AcDbBlockEnd
0
ENDSEC
0
SECTION
2
ENTITIES
0
CIRCLE
5
100
100
AcDbEntity
8
0
100
AcDbCircle
10
280
20
248.99999387562275
30
0
40
1.7499999999999774
210
0
220
0
230
1
0
ARC
5
101
100
AcDbEntity
8
0
100
AcDbCircle
10
280
20
260
30
0
40
2.9999999999999809
210
0
220
0
230
1
100
AcDbArc
50
-143.1304818107842
51
143.1304818107842
0
LWPOLYLINE
5
102
100
AcDbEntity
8
0
100
AcDbPolyline
90
4
70
1
43
0.0
10
-61.999999999999886
20
-76.999999999999957
10
-90.999999999999943
20
-76.999999999999957
10
-90.999999999999943
20
-122.99999999999997
10
-61.999999999999886
20
-122.99999999999997
0
CIRCLE
5
103
100
AcDbEntity
8
0
100
AcDbCircle
10
375
20
-125
30
0
40
40.000000000000078
210
0
220
0
230
1
0
LINE
5
104
100
AcDbEntity
8
0
100
AcDbLine
10
-58.499999999999943
20
4.5000000000000284
30
0
11
-78.499999999999943
21
4.5000000000000284
31
0
0
CIRCLE
5
105
100
AcDbEntity
8
0
100
AcDbCircle
10
-17.998489885977733
20
-54.998489885977797
30
0
40
2.9999999999999987
210
0
220
0
230
1
0
CIRCLE
5
106
100
AcDbEntity
8
0
100
AcDbCircle
10
-17.998489885977733
20
-225.00151011402224
30
0
40
3.000000000000016
210
0
220
0
230
1
0
LWPOLYLINE
5
107
100
AcDbEntity
8
0
100
AcDbPolyline
90
4
70
1
43
0.0
10
-58.499999999999943
20
4.5000000000000284
10
-58.499999999999943
20
33.500000000000014
10
-87.5
20
33.500000000000014
10
-87.5
20
4.5000000000000284
0
CIRCLE
5
108
100
AcDbEntity
8
0
100
AcDbCircle
10
280
20
260
30
0
40
17.999999999999929
210
0
220
0
230
1
0
CIRCLE
5
109
100
AcDbEntity
8
0
100
AcDbCircle
10
380
20
260
30
0
40
27.5
210
0
220
0
230
1
0
CIRCLE
5
110
100
AcDbEntity
8
0
100
AcDbCircle
10
375
20
-125
30
0
40
111.99999999999996
210
0
220
0
230
1
0
CIRCLE
5
111
100
AcDbEntity
8
0
100
AcDbCircle
10
375
20
-75
30
0
40
2.999999999999996
210
0
220
0
230
1
0
CIRCLE
5
112
100
AcDbEntity
8
0
100
AcDbCircle
10
340
20
110
30
0
40
2.999999999999996
210
0
220
0
230
1
0
CIRCLE
5
113
100
AcDbEntity
8
0
100
AcDbCircle
10
125
20
-125
30
0
40
41.000000000000014
210
0
220
0
230
1
0
LWPOLYLINE
5
114
100
AcDbEntity
8
0
100
AcDbPolyline
90
4
70
1
43
0.0
10
-83.000000000000114
20
-179
10
-83.000000000000114
20
-132.99999999999997
10
-111.99999999999989
20
-132.99999999999997
10
-111.99999999999989
20
-179
0
CIRCLE
5
115
100
AcDbEntity
8
0
100
AcDbCircle
10
440
20
110
30
0
40
2.999999999999996
210
0
220
0
230
1
0
LINE
5
116
100
AcDbEntity
8
0
100
AcDbLine
10
447.59998807907107
20
258.19999409914021
30
0
11
447.59998807907107
21
261.79999415874477
31
0
0
LWPOLYLINE
5
117
100
AcDbEntity
8
0
100
AcDbPolyline
90
8
70
1
43
0.0
10
-13.000000000000114
20
-45.000000000000213
42
-0.41421356237311585
10
-8.0000000000001137
20
-50
10
-7.9999999999999005
20
-230
42
-0.41421356237311585
10
-13.000000000000114
20
-235
10
-223.00000000000011
20
-235.00000000000006
42
-0.4142135623730992
10
-228.00000000000011
20
-230
10
-228.00000000000011
20
-50
42
-0.41421356237309503
10
-223.00000000000011
20
-45
0
CIRCLE
5
118
100
AcDbEntity
8
0
100
AcDbCircle
10
390
20
160
30
0
40
2.999999999999996
210
0
220
0
230
1
0
CIRCLE
5
119
100
AcDbEntity
8
0
100
AcDbCircle
10
325
20
-125
30
0
40
2.999999999999996
210
0
220
0
230
1
0
LINE
5
120
100
AcDbEntity
8
0
100
AcDbLine
10
277.59998807907107
20
258.19999409914021
30
0
11
277.59998807907107
21
261.79999415874477
31
0
0
ARC
5
121
100
AcDbEntity
8
0
100
AcDbCircle
10
450
20
260
30
0
40
2.9999999999999809
210
0
220
0
230
1
100
AcDbArc
50
-143.1304818107842
51
143.1304818107842
0
LWPOLYLINE
5
122
100
AcDbEntity
8
0
100
AcDbPolyline
90
4
70
1
43
0.0
10
-41.999999999999886
20
-132.99999999999997
10
-70.999999999999943
20
-132.99999999999997
10
-70.999999999999943
20
-179
10
-41.999999999999886
20
-179
0
CIRCLE
5
123
100
AcDbEntity
8
0
100
AcDbCircle
10
175
20
-125
30
0
40
2.999999999999996
210
0
220
0
230
1
0
CIRCLE
5
124
100
AcDbEntity
8
0
100
AcDbCircle
10
450
20
260
30
0
40
12.999999999999991
210
0
220
0
230
1
0
CIRCLE
5
125
100
AcDbEntity
8
0
100
AcDbCircle
10
268.99999999999989
20
260
30
0
40
1.7499999999999867
210
0
220
0
230
1
0
CIRCLE
5
126
100
AcDbEntity
8
0
100
AcDbCircle
10
280
20
271
30
0
40
1.7500000000000404
210
0
220
0
230
1
0
CIRCLE
5
127
100
AcDbEntity
8
0
100
AcDbCircle
10
390
20
60
30
0
40
2.999999999999996
210
0
220
0
230
1
0
CIRCLE
5
128
100
AcDbEntity
8
0
100
AcDbCircle
10
125
20
-175
30
0
40
2.999999999999996
210
0
220
0
230
1
0
CIRCLE
5
129
100
AcDbEntity
8
0
100
AcDbCircle
10
291.00000000000011
20
260.00000002393529
30
0
40
1.7500000000000391
210
0
220
0
230
1
0
ARC
5
130
100
AcDbEntity
8
0
100
AcDbCircle
10
380
20
260
30
0
40
2.9999999999999809
210
0
220
0
230
1
100
AcDbArc
50
-143.1304818107842
51
143.1304818107842
0
CIRCLE
5
131
100
AcDbEntity
8
0
100
AcDbCircle
10
375
20
-175
30
0
40
2.999999999999996
210
0
220
0
230
1
0
LWPOLYLINE
5
132
100
AcDbEntity
8
0
100
AcDbPolyline
90
8
70
1
43
0.0
10
-18.000000000000114
20
65.000000000000043
42
-0.41421356237309764
10
-13.000000000000114
20
60
10
-13.000000000000149
20
-22.000000000000028
42
-0.41421356237309709
10
-18.000000000000114
20
-27.000000000000028
10
-228.00000000000011
20
-27.000000000000011
42
-0.41421356237309398
10
-233.00000000000011
20
-22.000000000000028
10
-233.00000000000011
20
60
42
-0.41421356237309453
10
-228.00000000000011
20
64.999999999999986
0
CIRCLE
5
133
100
AcDbEntity
8
0
100
AcDbCircle
10
-22.998489885977733
20
-17.001510114022267
30
0
40
3.0000000000000071
210
0
220
0
230
1
0
CIRCLE
5
134
100
AcDbEntity
8
0
100
AcDbCircle
10
179.00000000000006
20
140
30
0
40
2.999999999999996
210
0
220
0
230
1
0
CIRCLE
5
135
100
AcDbEntity
8
0
100
AcDbCircle
10
129.00000320374971
20
139.99999888241291
30
0
40
8.0000000000000036
210
0
220
0
230
1
0
CIRCLE
5
136
100
AcDbEntity
8
0
100
AcDbCircle
10
116.00962214698313
20
132.49999888241291
30
0
40
1.4999999999999987
210
0
220
0
230
1
0
CIRCLE
5
137
100
AcDbEntity
8
0
100
AcDbCircle
10
79.000000000000057
20
140
30
0
40
2.999999999999996
210
0
220
0
230
1
0
CIRCLE
5
138
100
AcDbEntity
8
0
100
AcDbCircle
10
141.99038426051629
20
132.49999888241291
30
0
40
1.5000000000000002
210
0
220
0
230
1
0
CIRCLE
5
139
100
AcDbEntity
8
0
100
AcDbCircle
10
129.00000320374971
20
154.99999888241291
30
0
40
1.4999999999999951
210
0
220
0
230
1
0
CIRCLE
5
140
100
AcDbEntity
8
0
100
AcDbCircle
10
129.00000000000006
20
190
30
0
40
2.999999999999996
210
0
220
0
230
1
0
CIRCLE
5
141
100
AcDbEntity
8
0
100
AcDbCircle
10
129.00000000000006
20
90
30
0
40
2.999999999999996
210
0
220
0
230
1
0
LWPOLYLINE
5
142
100
AcDbEntity
8
0
100
AcDbPolyline
90
4
70
1
43
0.0
10
-173.00000000000011
20
-122.99999999999997
10
-144.00000000000006
20
-122.99999999999997
10
-144.00000000000006
20
-76.999999999999957
10
-173.00000000000011
20
-76.999999999999957
0
LWPOLYLINE
5
143
100
AcDbEntity
8
0
100
AcDbPolyline
90
4
70
1
43
0.0
10
-124.00000000000006
20
-132.99999999999997
10
-153.00000000000011
20
-132.99999999999997
10
-153.00000000000011
20
-179
10
-124.00000000000006
20
-179
0
CIRCLE
5
144
100
AcDbEntity
8
0
100
AcDbCircle
10
-223.00151011402221
20
-17.001510114022267
30
0
40
3.0000000000000169
210
0
220
0
230
1
0
LWPOLYLINE
5
145
100
AcDbEntity
8
0
100
AcDbPolyline
90
4
70
1
43
0.0
10
-137.5
20
4.5000000000000284
10
-108.49999999999994
20
4.5000000000000284
10
-108.49999999999994
20
33.500000000000014
10
-137.5
20
33.500000000000014
0
CIRCLE
5
146
100
AcDbEntity
8
0
100
AcDbCircle
10
-218.00151011402221
20
-225.00151011402224
30
0
40
3.00000000000002
210
0
220
0
230
1
0
LWPOLYLINE
5
147
100
AcDbEntity
8
0
100
AcDbPolyline
90
4
70
1
43
0.0
10
-158.49999999999994
20
4.5000000000000284
10
-158.49999999999994
20
33.500000000000014
10
-187.5
20
33.500000000000014
10
-187.5
20
4.5000000000000284
0
LWPOLYLINE
5
148
100
AcDbEntity
8
0
100
AcDbPolyline
90
4
70
1
43
0.0
10
-103.00000000000011
20
-76.999999999999957
10
-131.99999999999989
20
-76.999999999999957
10
-131.99999999999989
20
-122.99999999999997
10
-103.00000000000011
20
-122.99999999999997
0
CIRCLE
5
149
100
AcDbEntity
8
0
100
AcDbCircle
10
-119.00103300409739
20
179.84924014187885
30
0
40
1.7499999999999813
210
0
220
0
230
1
0
LWPOLYLINE
5
150
100
AcDbEntity
8
0
100
AcDbPolyline
90
4
70
1
43
0.0
10
-144.00000000000006
20
-76.999999999999957
10
-173.00000000000011
20
-76.999999999999957
10
-173.00000000000011
20
-122.99999999999997
10
-144.00000000000006
20
-122.99999999999997
0
CIRCLE
5
151
100
AcDbEntity
8
0
100
AcDbCircle
10
-218.00151011402221
20
-54.998489885977797
30
0
40
3.0000000000000142
210
0
220
0
230
1
0
LWPOLYLINE
5
152
100
AcDbEntity
8
0
100
AcDbPolyline
90
4
70
1
43
0.0
10
-194.00000000000006
20
-179
10
-165
20
-179
10
-165
20
-132.99999999999997
10
-194.00000000000006
20
-132.99999999999997
0
CIRCLE
5
153
100
AcDbEntity
8
0
100
AcDbCircle
10
-223.00151011402221
20
55.001510114022238
30
0
40
2.9999999999999982
210
0
220
0
230
1
0
LINE
5
154
100
AcDbEntity
8
0
100
AcDbLine
10
-187.5
20
33.500000000000014
30
0
11
-167.5
21
33.500000000000014
31
0
0
CIRCLE
5
155
100
AcDbEntity
8
0
100
AcDbCircle
10
125
20
-75
30
0
40
2.999999999999996
210
0
220
0
230
1
0
CIRCLE
5
156
100
AcDbEntity
8
0
100
AcDbCircle
10
129.00000000000006
20
140
30
0
40
130.00000000000003
210
0
220
0
230
1
0
CIRCLE
5
157
100
AcDbEntity
8
0
100
AcDbCircle
10
-129.9999999981128
20
179.9999884903321
30
0
40
2.9999999999999858
210
0
220
0
230
1
0
CIRCLE
5
158
100
AcDbEntity
8
0
100
AcDbCircle
10
-140.9989669921282
20
179.84924014187885
30
0
40
1.749999999999901
210
0
220
0
230
1
0
CIRCLE
5
159
100
AcDbEntity
8
0
100
AcDbCircle
10
129.00000000000006
20
140
30
0
40
130.00000000000003
210
0
220
0
230
1
0
LINE
5
160
100
AcDbEntity
8
0
100
AcDbLine
10
377.59998807907107
20
258.19999409914021
30
0
11
377.59998807907107
21
261.79999415874477
31
0
0
CIRCLE
5
161
100
AcDbEntity
8
0
100
AcDbCircle
10
125
20
-125
30
0
40
121.99999999999997
210
0
220
0
230
1
0
CIRCLE
5
162
100
AcDbEntity
8
0
100
AcDbCircle
10
-129.9999999981128
20
179.9999884903321
30
0
40
107
210
0
220
0
230
1
0
CIRCLE
5
163
100
AcDbEntity
8
0
100
AcDbCircle
10
75
20
-125
30
0
40
2.999999999999996
210
0
220
0
230
1
0
CIRCLE
5
164
100
AcDbEntity
8
0
100
AcDbCircle
10
425
20
-125
30
0
40
2.999999999999996
210
0
220
0
230
1
0
CIRCLE
5
165
100
AcDbEntity
8
0
100
AcDbCircle
10
390
20
110
30
0
40
110.99999999999997
210
0
220
0
230
1
0
CIRCLE
5
166
100
AcDbEntity
8
0
100
AcDbCircle
10
-130.03509322339795
20
190.99993251135061
30
0
40
1.7499999999999718
210
0
220
0
230
1
0
CIRCLE
5
167
100
AcDbEntity
8
0
100
AcDbCircle
10
-23.712667734976094
20
54.287332265023807
30
0
40
2.9999999999999982
210
0
220
0
230
1
0
CIRCLE
5
168
100
AcDbEntity
8
0
100
AcDbCircle
10
-130.03509322339795
20
169.00004446931362
30
0
40
1.7499999999999951
210
0
220
0
230
1
0
CIRCLE
5
169
100
AcDbEntity
8
0
100
AcDbCircle
10
390
20
110
30
0
40
40.000000000000078
210
0
220
0
230
1
0
ENDSEC
0
SECTION
2
OBJECTS
0
DICTIONARY
5
C
100
AcDbDictionary
3
ACAD_GROUP
350
D
3
ACAD_MLINESTYLE
350
17
0
DICTIONARY
5
D
100
AcDbDictionary
0
DICTIONARY
5
1A
330
C
100
AcDbDictionary
0
DICTIONARY
5
17
100
AcDbDictionary
0
ENDSEC
0
EOF
