0
SECTION
2
HEADER
9
$INSUNITS
70
4
9
$ACADVER
1
AC1014
9
$HANDSEED
5
FFFF
0
ENDSEC
0
SECTION
2
TABLES
0
TABLE
2
VPORT
5
8
100
AcDbSymbolTable
0
ENDTAB
0
TABLE
2
LTYPE
5
5
100
AcDbSymbolTable
0
LTYPE
5
14
100
AcDbSymbolTableRecord
100
AcDbLinetypeTableRecord
2
BYBLOCK
70
0
0
LTYPE
5
15
100
AcDbSymbolTableRecord
100
AcDbLinetypeTableRecord
2
BYLAYER
70
0
0
ENDTAB
0
TABLE
2
LAYER
5
2
100
AcDbSymbolTable
70
2
0
LAYER
5
50
100
AcDbSymbolTableRecord
100
AcDbLayerTableRecord
2
0
70
0
6
CONTINUOUS
0
ENDTAB
0
TABLE
2
STYLE
5
3
100
AcDbSymbolTable
70
1
0
STYLE
5
11
100
AcDbSymbolTableRecord
100
AcDbTextStyleTableRecord
2
STANDARD
70
0
0
ENDTAB
0
TABLE
2
VIEW
5
6
100
AcDbSymbolTable
70
0
0
ENDTAB
0
TABLE
2
UCS
5
7
100
AcDbSymbolTable
70
0
0
ENDTAB
0
TABLE
2
APPID
5
9
100
AcDbSymbolTable
70
2
0
APPID
5
12
100
AcDbSymbolTableRecord
100
AcDbRegAppTableRecord
2
ACAD
70
0
0
ENDTAB
0
TABLE
2
DIMSTYLE
5
A
100
AcDbSymbolTable
70
1
0
ENDTAB
0
TABLE
2
BLOCK_RECORD
5
1
100
AcDbSymbolTable
70
1
0
BLOCK_RECORD
5
1F
100
AcDbSymbolTableRecord
100
AcDbBlockTableRecord
2
*MODEL_SPACE
0
BLOCK_RECORD
5
1B
100
AcDbSymbolTableRecord
100
AcDbBlockTableRecord
2
*PAPER_SPACE
0
ENDTAB
0
ENDSEC
0
SECTION
2
BLOCKS
0
BLOCK
5
20
100
AcDbEntity
100
AcDbBlockBegin
2
*MODEL_SPACE
0
ENDBLK
5
21
100
AcDbEntity
100
AcDbBlockEnd
0
BLOCK
5
1C
100
AcDbEntity
100
AcDbBlockBegin
2
*PAPER_SPACE
0
ENDBLK
5
1D
100
AcDbEntity
100
AcDbBlockEnd
0
ENDSEC
0
SECTION
2
ENTITIES
0
CIRCLE
5
100
100
AcDbEntity
8
0
100
AcDbCircle
10
250
20
-125
30
0
40
2.999999999999996
210
0
220
0
230
1
0
CIRCLE
5
101
100
AcDbEntity
8
0
100
AcDbCircle
10
450
20
-125
30
0
40
40.000000000000078
210
0
220
0
230
1
0
CIRCLE
5
102
100
AcDbEntity
8
0
100
AcDbCircle
10
500
20
-125
30
0
40
2.999999999999996
210
0
220
0
230
1
0
CIRCLE
5
103
100
AcDbEntity
8
0
100
AcDbCircle
10
724.0010330078718
20
214.84924014187882
30
0
40
1.7499999999999007
210
0
220
0
230
1
0
CIRCLE
5
104
100
AcDbEntity
8
0
100
AcDbCircle
10
465
20
121.00000000000001
30
0
40
1.7500000000000404
210
0
220
0
230
1
0
CIRCLE
5
105
100
AcDbEntity
8
0
100
AcDbCircle
10
734.96490677660199
20
225.99993251135061
30
0
40
1.7499999999999718
210
0
220
0
230
1
0
CIRCLE
5
106
100
AcDbEntity
8
0
100
AcDbCircle
10
179.00000000000006
20
207.50800785564891
30
0
40
2.999999999999996
210
0
220
0
230
1
0
LWPOLYLINE
5
107
100
AcDbEntity
8
0
100
AcDbPolyline
90
4
70
1
43
0.0
10
766.99999999999989
20
-107.99999999999997
10
766.99999999999989
20
-154.00000000000003
10
738.00000000000011
20
-154.00000000000003
10
738.00000000000011
20
-107.99999999999997
0
ARC
5
108
100
AcDbEntity
8
0
100
AcDbCircle
10
465
20
110
30
0
40
3.000000000000095
210
0
220
0
230
1
100
AcDbArc
50
-143.13048181078571
51
143.13048181078571
0
LWPOLYLINE
5
109
100
AcDbEntity
8
0
100
AcDbPolyline
90
4
70
1
43
0.0
10
676.99999999999989
20
-51.999999999999957
10
706
20
-51.999999999999957
10
706
20
-97.999999999999972
10
676.99999999999989
20
-97.999999999999972
0
CIRCLE
5
110
100
AcDbEntity
8
0
100
AcDbCircle
10
735.0000000018872
20
214.99998849033204
30
0
40
2.9999999999999858
210
0
220
0
230
1
0
CIRCLE
5
111
100
AcDbEntity
8
0
100
AcDbCircle
10
453.99999999999977
20
110
30
0
40
1.7499999999999871
210
0
220
0
230
1
0
CIRCLE
5
112
100
AcDbEntity
8
0
100
AcDbCircle
10
734.96490677660199
20
204.00004446931362
30
0
40
1.7499999999999951
210
0
220
0
230
1
0
LWPOLYLINE
5
113
100
AcDbEntity
8
0
100
AcDbPolyline
90
8
70
1
43
0.0
10
304.00000000000006
20
287.44890577658805
42
-0.41421356237309503
10
309.00000000000006
20
282.44890577658805
10
309.00000000000006
20
32.508004652289557
42
-0.41421356237309503
10
304.00000000000006
20
27.508004652289557
10
54.015840322386452
20
27.508004652289522
42
-0.41421356237309709
10
49.015840322386452
20
32.508004652289557
10
49.015840322386595
20
282.44890577658816
42
-0.41421356237309087
10
54.015840322386595
20
287.44890577658805
0
CIRCLE
5
114
100
AcDbEntity
8
0
100
AcDbCircle
10
166.00962214698313
20
150.00800673806185
30
0
40
1.4999999999999989
210
0
220
0
230
1
0
LWPOLYLINE
5
115
100
AcDbEntity
8
0
100
AcDbPolyline
90
4
70
1
43
0.0
10
808.00000000000011
20
-107.99999999999997
10
808.00000000000011
20
-154.00000000000003
10
779
20
-154.00000000000003
10
779
20
-107.99999999999997
0
CIRCLE
5
116
100
AcDbEntity
8
0
100
AcDbCircle
10
415
20
110
30
0
40
2.999999999999996
210
0
220
0
230
1
0
CIRCLE
5
117
100
AcDbEntity
8
0
100
AcDbCircle
10
229.00000000000006
20
157.50800785564891
30
0
40
2.999999999999996
210
0
220
0
230
1
0
LWPOLYLINE
5
118
100
AcDbEntity
8
0
100
AcDbPolyline
90
4
70
1
43
0.0
10
746.99999999999989
20
-97.999999999999972
10
718.00000000000011
20
-97.999999999999972
10
718.00000000000011
20
-51.999999999999957
10
746.99999999999989
20
-51.999999999999957
0
LWPOLYLINE
5
119
100
AcDbEntity
8
0
100
AcDbPolyline
90
4
70
1
43
0.0
10
759
20
-97.999999999999972
10
759
20
-51.999999999999957
10
788.00000000000011
20
-51.999999999999957
10
788.00000000000011
20
-97.999999999999972
0
LINE
5
120
100
AcDbEntity
8
0
100
AcDbLine
10
462.59998807907095
20
108.19999409914021
30
0
11
462.59998807907095
21
111.79999415874484
31
0
0
CIRCLE
5
121
100
AcDbEntity
8
0
100
AcDbCircle
10
179.00000320374971
20
157.50800673806185
30
0
40
8.0000000000000036
210
0
220
0
230
1
0
LINE
5
122
100
AcDbEntity
8
0
100
AcDbLine
10
197.59998807907124
20
-126.80000590085979
30
0
11
197.59998807907124
21
-123.20000584125516
31
0
0
CIRCLE
5
123
100
AcDbEntity
8
0
100
AcDbCircle
10
200
20
-125
30
0
40
41.000000000000014
210
0
220
0
230
1
0
LWPOLYLINE
5
124
100
AcDbEntity
8
0
100
AcDbPolyline
90
12
70
1
43
0.0
10
621.99999999999989
20
-25
10
621.99999999999989
20
2.9999999999999716
10
621.99999999999989
20
85
42
-0.41421356237309398
10
626.99999999999989
20
90
10
836.99999999999989
20
90.000000000000028
42
-0.41421356237309814
10
841.99999999999989
20
85
10
841.99999999999989
20
2.9999999999999716
10
841.99999999999989
20
-25
10
841.99999999999989
20
-205
42
-0.41421356237311585
10
836.99999999999989
20
-210
10
626.99999999999989
20
-210.00000000000011
42
-0.4142135623730992
10
621.99999999999989
20
-205
0
ARC
5
125
100
AcDbEntity
8
0
100
AcDbCircle
10
200
20
-125
30
0
40
3.000000000000095
210
0
220
0
230
1
100
AcDbArc
50
-143.13048181078571
51
143.13048181078571
0
CIRCLE
5
126
100
AcDbEntity
8
0
100
AcDbCircle
10
400
20
-125
30
0
40
2.999999999999996
210
0
220
0
230
1
0
CIRCLE
5
127
100
AcDbEntity
8
0
100
AcDbCircle
10
450
20
-125
30
0
40
111.99999999999996
210
0
220
0
230
1
0
CIRCLE
5
128
100
AcDbEntity
8
0
100
AcDbCircle
10
745.99896699590261
20
214.84924014187882
30
0
40
1.7499999999999813
210
0
220
0
230
1
0
CIRCLE
5
129
100
AcDbEntity
8
0
100
AcDbCircle
10
465
20
110
30
0
40
40.000000000000078
210
0
220
0
230
1
0
CIRCLE
5
130
100
AcDbEntity
8
0
100
AcDbCircle
10
191.99038426051629
20
150.00800673806185
30
0
40
1.5000000000000002
210
0
220
0
230
1
0
LWPOLYLINE
5
131
100
AcDbEntity
8
0
100
AcDbPolyline
90
4
70
1
43
0.0
10
696.5
20
58.500000000000014
10
696.5
20
29.500000000000028
10
667.5
20
29.500000000000028
10
667.5
20
58.500000000000014
0
CIRCLE
5
132
100
AcDbEntity
8
0
100
AcDbCircle
10
465
20
60
30
0
40
2.999999999999996
210
0
220
0
230
1
0
CIRCLE
5
133
100
AcDbEntity
8
0
100
AcDbCircle
10
465
20
110
30
0
40
17.999999999999929
210
0
220
0
230
1
0
CIRCLE
5
134
100
AcDbEntity
8
0
100
AcDbCircle
10
515
20
110
30
0
40
2.999999999999996
210
0
220
0
230
1
0
LWPOLYLINE
5
135
100
AcDbEntity
8
0
100
AcDbPolyline
90
4
70
1
43
0.0
10
696.99999999999989
20
-154.00000000000003
10
696.99999999999989
20
-107.99999999999997
10
726
20
-107.99999999999997
10
726
20
-154.00000000000003
0
LWPOLYLINE
5
136
100
AcDbEntity
8
0
100
AcDbPolyline
90
4
70
1
43
0.0
10
685
20
-154.00000000000003
10
656
20
-154.00000000000003
10
656
20
-107.99999999999997
10
685
20
-107.99999999999997
0
LWPOLYLINE
5
137
100
AcDbEntity
8
0
100
AcDbPolyline
90
4
70
1
43
0.0
10
717.5
20
58.500000000000014
10
746.5
20
58.500000000000014
10
746.5
20
29.500000000000028
10
717.5
20
29.500000000000028
0
LINE
5
138
100
AcDbEntity
8
0
100
AcDbLine
10
676.99999999999989
20
-97.999999999999972
30
0
11
706
21
-97.999999999999972
31
0
0
CIRCLE
5
139
100
AcDbEntity
8
0
100
AcDbCircle
10
129.00000000000006
20
157.50800785564891
30
0
40
2.999999999999996
210
0
220
0
230
1
0
LINE
5
140
100
AcDbEntity
8
0
100
AcDbLine
10
706
20
-51.999999999999957
30
0
11
676.99999999999989
21
-51.999999999999957
31
0
0
LINE
5
141
100
AcDbEntity
8
0
100
AcDbLine
10
796.5
20
29.500000000000028
30
0
11
776.5
21
29.500000000000028
31
0
0
CIRCLE
5
142
100
AcDbEntity
8
0
100
AcDbCircle
10
465
20
98.999993875622749
30
0
40
1.7499999999999774
210
0
220
0
230
1
0
LINE
5
143
100
AcDbEntity
8
0
100
AcDbLine
10
667.5
20
58.500000000000014
30
0
11
687.5
21
58.500000000000014
31
0
0
LWPOLYLINE
5
144
100
AcDbEntity
8
0
100
AcDbPolyline
90
4
70
1
43
0.0
10
767.5
20
29.500000000000028
10
767.5
20
58.500000000000014
10
796.5
20
58.500000000000014
10
796.5
20
29.500000000000028
0
CIRCLE
5
145
100
AcDbEntity
8
0
100
AcDbCircle
10
831.28733226502391
20
79.287332265023807
30
0
40
2.9999999999999982
210
0
220
0
230
1
0
CIRCLE
5
146
100
AcDbEntity
8
0
100
AcDbCircle
10
631.99848988597773
20
80.001510114022238
30
0
40
2.9999999999999982
210
0
220
0
230
1
0
CIRCLE
5
147
100
AcDbEntity
8
0
100
AcDbCircle
10
200
20
-125
30
0
40
12.999999999999993
210
0
220
0
230
1
0
LINE
5
148
100
AcDbEntity
8
0
100
AcDbLine
10
447.59998807907124
20
-126.80000590085979
30
0
11
447.59998807907124
21
-123.20000584125516
31
0
0
CIRCLE
5
149
100
AcDbEntity
8
0
100
AcDbCircle
10
200
20
-125
30
0
40
121.99999999999996
210
0
220
0
230
1
0
CIRCLE
5
150
100
AcDbEntity
8
0
100
AcDbCircle
10
450
20
-75
30
0
40
2.999999999999996
210
0
220
0
230
1
0
CIRCLE
5
151
100
AcDbEntity
8
0
100
AcDbCircle
10
179.00000320374971
20
172.50800673806182
30
0
40
1.4999999999999951
210
0
220
0
230
1
0
CIRCLE
5
152
100
AcDbEntity
8
0
100
AcDbCircle
10
450
20
-175
30
0
40
2.999999999999996
210
0
220
0
230
1
0
CIRCLE
5
153
100
AcDbEntity
8
0
100
AcDbCircle
10
200
20
-175
30
0
40
2.999999999999996
210
0
220
0
230
1
0
ARC
5
154
100
AcDbEntity
8
0
100
AcDbCircle
10
450
20
-125
30
0
40
3.000000000000095
210
0
220
0
230
1
100
AcDbArc
50
-143.13048181078571
51
143.13048181078571
0
CIRCLE
5
155
100
AcDbEntity
8
0
100
AcDbCircle
10
631.99848988597773
20
-200.00151011402227
30
0
40
3.0000000000000204
210
0
220
0
230
1
0
CIRCLE
5
156
100
AcDbEntity
8
0
100
AcDbCircle
10
450
20
-125
30
0
40
27.5
210
0
220
0
230
1
0
CIRCLE
5
157
100
AcDbEntity
8
0
100
AcDbCircle
10
476.00000000000023
20
110.00000002393531
30
0
40
1.7500000000000393
210
0
220
0
230
1
0
CIRCLE
5
158
100
AcDbEntity
8
0
100
AcDbCircle
10
179.00000000000006
20
107.50800785564891
30
0
40
2.999999999999996
210
0
220
0
230
1
0
LINE
5
159
100
AcDbEntity
8
0
100
AcDbLine
10
706
20
-97.999999999999972
30
0
11
706
21
-51.999999999999957
31
0
0
CIRCLE
5
160
100
AcDbEntity
8
0
100
AcDbCircle
10
465
20
160
30
0
40
2.999999999999996
210
0
220
0
230
1
0
CIRCLE
5
161
100
AcDbEntity
8
0
100
AcDbCircle
10
832.00151011402227
20
-200.00151011402227
30
0
40
3.000000000000016
210
0
220
0
230
1
0
LINE
5
162
100
AcDbEntity
8
0
100
AcDbLine
10
676.99999999999989
20
-51.999999999999957
30
0
11
676.99999999999989
21
-97.999999999999972
31
0
0
CIRCLE
5
163
100
AcDbEntity
8
0
100
AcDbCircle
10
735.0000000018872
20
214.99998849033204
30
0
40
107.00000000000001
210
0
220
0
230
1
0
CIRCLE
5
164
100
AcDbEntity
8
0
100
AcDbCircle
10
465
20
110
30
0
40
110.99999999999996
210
0
220
0
230
1
0
CIRCLE
5
165
100
AcDbEntity
8
0
100
AcDbCircle
10
200
20
-75
30
0
40
2.999999999999996
210
0
220
0
230
1
0
CIRCLE
5
166
100
AcDbEntity
8
0
100
AcDbCircle
10
150
20
-125
30
0
40
2.999999999999996
210
0
220
0
230
1
0
ENDSEC
0
SECTION
2
OBJECTS
0
DICTIONARY
5
C
100
AcDbDictionary
3
ACAD_GROUP
350
D
3
ACAD_MLINESTYLE
350
17
0
DICTIONARY
5
D
100
AcDbDictionary
0
DICTIONARY
5
1A
330
C
100
AcDbDictionary
0
DICTIONARY
5
17
100
AcDbDictionary
0
ENDSEC
0
EOF
